<svg xmlns="http://www.w3.org/2000/svg" viewBox="0 0 1 1" fill="currentColor" aria-hidden="true"><path d="M 0.21676 0.88666 L 0.21608 0.89117 L 0.21517 0.89564 L 0.21404 0.90006 L 0.2127 0.90442 L 0.21114 0.90871 L 0.20937 0.91292 L 0.2074 0.91703 L 0.20523 0.92105 L 0.20286 0.92495 L 0.2003 0.92872 L 0.19756 0.93237 L 0.19464 0.93588 L 0.19155 0.93924 L 0.1883 0.94245 L 0.1849 0.94549 L 0.18135 0.94835 L 0.17766 0.95104 L 0.17385 0.95355 L 0.16992 0.95586 L 0.16587 0.95798 L 0.16173 0.95989 L 0.1575 0.9616 L 0.15319 0.9631 L 0.14881 0.96438 L 0.14437 0.96545 L 0.13989 0.96629 L 0.13537 0.96692 L 0.13082 0.96732 L 0.12626 0.96749 L 0.1217 0.96744 L 0.11715 0.96717 L 0.11261 0.96667 L 0.1081 0.96594 L 0.10364 0.965 L 0.09923 0.96384 L 0.09488 0.96246 L 0.0906 0.96087 L 0.08641 0.95906 L 0.08231 0.95706 L 0.07831 0.95485 L 0.07443 0.95245 L 0.07067 0.94987 L 0.06705 0.9471 L 0.06356 0.94415 L 0.06023 0.94104 L 0.05705 0.93776 L 0.05404 0.93433 L 0.0512 0.93076 L 0.04854 0.92705 L 0.04606 0.92322 L 0.04378 0.91927 L 0.0417 0.91521 L 0.03981 0.91105 L 0.03814 0.90681 L 0.03668 0.90248 L 0.03543 0.8981 L 0.0344 0.89365 L 0.03359 0.88916 L 0.033 0.88463 L 0.03264 0.88009 L 0.0325 0.87552 L 0.03259 0.87096 L 0.0329 0.86641 L 0.03344 0.86188 L 0.03419 0.85738 L 0.03517 0.85292 L 0.03637 0.84852 L 0.03779 0.84418 L 0.03941 0.83992 L 0.04125 0.83574 L 0.04328 0.83165 L 0.04552 0.82768 L 0.04795 0.82381 L 0.05057 0.82008 L 0.05337 0.81647 L 0.05634 0.81301 L 0.05948 0.8097 L 0.06278 0.80655 L 0.18722 0.69345 L 0.19049 0.69032 L 0.19362 0.68703 L 0.19657 0.6836 L 0.19936 0.68002 L 0.20196 0.67631 L 0.20438 0.67248 L 0.20661 0.66854 L 0.20865 0.66449 L 0.21048 0.66034 L 0.21211 0.65611 L 0.21353 0.65181 L 0.21474 0.64744 L 0.21573 0.64302 L 0.2165 0.63855 L 0.21706 0.63405 L 0.21739 0.62953 L 0.2175 0.625 L 0.21739 0.62047 L 0.21706 0.61595 L 0.2165 0.61145 L 0.21573 0.60698 L 0.21474 0.60256 L 0.21353 0.59819 L 0.21211 0.59389 L 0.21048 0.58966 L 0.20865 0.58551 L 0.20661 0.58146 L 0.20438 0.57752 L 0.20196 0.57369 L 0.19936 0.56998 L 0.19657 0.5664 L 0.19362 0.56297 L 0.19049 0.55968 L 0.18722 0.55655 L 0.06278 0.44345 L 0.0595 0.44032 L 0.05638 0.43703 L 0.05342 0.43359 L 0.05063 0.43001 L 0.04803 0.4263 L 0.04561 0.42246 L 0.04337 0.41851 L 0.04134 0.41446 L 0.0395 0.41031 L 0.03788 0.40608 L 0.03646 0.40177 L 0.03525 0.39739 L 0.03426 0.39297 L 0.03349 0.3885 L 0.03294 0.384 L 0.03261 0.37947 L 0.0325 0.37494 L 0.03261 0.3704 L 0.03295 0.36588 L 0.03351 0.36138 L 0.03429 0.35691 L 0.03528 0.35248 L 0.03649 0.34811 L 0.03792 0.3438 L 0.03955 0.33957 L 0.04139 0.33543 L 0.04343 0.33137 L 0.04567 0.32743 L 0.0481 0.3236 L 0.05071 0.31989 L 0.0535 0.31631 L 0.05646 0.31288 L 0.05959 0.30959 L 0.30959 0.05959 L 0.31288 0.05646 L 0.31632 0.0535 L 0.3199 0.0507 L 0.32361 0.04809 L 0.32745 0.04566 L 0.3314 0.04342 L 0.33545 0.04138 L 0.3396 0.03954 L 0.34384 0.03791 L 0.34815 0.03648 L 0.35252 0.03527 L 0.35695 0.03428 L 0.36143 0.0335 L 0.36593 0.03295 L 0.37046 0.03261 L 0.375 0.0325 L 0.625 0.0325 L 0.62954 0.03261 L 0.63406 0.03294 L 0.63856 0.0335 L 0.64304 0.03428 L 0.64746 0.03527 L 0.65184 0.03648 L 0.65614 0.0379 L 0.66038 0.03953 L 0.66453 0.04137 L 0.66858 0.04341 L 0.67253 0.04564 L 0.67636 0.04807 L 0.68007 0.05068 L 0.68365 0.05347 L 0.68709 0.05644 L 0.69038 0.05956 L 0.69351 0.06285 L 0.69647 0.06628 L 0.69927 0.06986 L 0.70188 0.07357 L 0.70431 0.0774 L 0.70655 0.08134 L 0.70859 0.0854 L 0.71043 0.08954 L 0.71207 0.09377 L 0.7135 0.09808 L 0.71471 0.10245 L 0.71571 0.10688 L 0.71649 0.11135 L 0.71705 0.11585 L 0.71738 0.12038 L 0.7175 0.12491 L 0.71739 0.12945 L 0.71706 0.13398 L 0.71651 0.13848 L 0.71574 0.14295 L 0.71475 0.14738 L 0.71355 0.15175 L 0.71213 0.15606 L 0.7105 0.1603 L 0.70867 0.16445 L 0.70663 0.16851 L 0.7044 0.17246 L 0.70198 0.17629 L 0.69937 0.18001 L 0.69658 0.18359 L 0.69362 0.18703 L 0.6905 0.19032 L 0.68722 0.19345 L 0.56278 0.30655 L 0.55949 0.3097 L 0.55635 0.31301 L 0.55338 0.31647 L 0.55058 0.32007 L 0.54796 0.3238 L 0.54553 0.32766 L 0.5433 0.33163 L 0.54126 0.33571 L 0.53942 0.33989 L 0.5378 0.34415 L 0.53638 0.34848 L 0.53518 0.35288 L 0.5342 0.35733 L 0.53344 0.36183 L 0.5329 0.36636 L 0.53259 0.3709 L 0.5325 0.37546 L 0.53264 0.38002 L 0.533 0.38457 L 0.53358 0.38909 L 0.53438 0.39358 L 0.53541 0.39802 L 0.53665 0.40241 L 0.53811 0.40673 L 0.53978 0.41097 L 0.54166 0.41513 L 0.54373 0.41918 L 0.54601 0.42313 L 0.54848 0.42697 L 0.55113 0.43068 L 0.55397 0.43425 L 0.55697 0.43768 L 0.56014 0.44095 L 0.56347 0.44407 L 0.56695 0.44702 L 0.57057 0.44979 L 0.57432 0.45238 L 0.5782 0.45479 L 0.58219 0.45699 L 0.58628 0.45901 L 0.59046 0.46081 L 0.59474 0.46241 L 0.59908 0.46379 L 0.60349 0.46496 L 0.89651 0.53504 L 0.90092 0.53621 L 0.90527 0.53759 L 0.90955 0.53919 L 0.91373 0.541 L 0.91783 0.54301 L 0.92182 0.54523 L 0.9257 0.54763 L 0.92945 0.55023 L 0.93307 0.553 L 0.93655 0.55595 L 0.93988 0.55907 L 0.94306 0.56235 L 0.94606 0.56579 L 0.9489 0.56936 L 0.95155 0.57307 L 0.95402 0.57691 L 0.95629 0.58087 L 0.95837 0.58493 L 0.96025 0.58909 L 0.96191 0.59334 L 0.96337 0.59766 L 0.96461 0.60206 L 0.96563 0.6065 L 0.96643 0.61099 L 0.96701 0.61552 L 0.96737 0.62007 L 0.9675 0.62463 L 0.9674 0.62919 L 0.96709 0.63375 L 0.96654 0.63828 L 0.96578 0.64277 L 0.96479 0.64723 L 0.96358 0.65163 L 0.96216 0.65597 L 0.96053 0.66023 L 0.95869 0.6644 L 0.95664 0.66848 L 0.9544 0.67246 L 0.95196 0.67631 L 0.94934 0.68005 L 0.94653 0.68365 L 0.94355 0.6871 L 0.94041 0.69041 L 0.69041 0.94041 L 0.68712 0.94354 L 0.68368 0.9465 L 0.6801 0.9493 L 0.67639 0.95191 L 0.67255 0.95434 L 0.6686 0.95658 L 0.66455 0.95862 L 0.6604 0.96046 L 0.65616 0.96209 L 0.65185 0.96352 L 0.64748 0.96473 L 0.64305 0.96572 L 0.63857 0.9665 L 0.63407 0.96705 L 0.62954 0.96739 L 0.625 0.9675 L 0.375 0.9675 L 0.37044 0.96739 L 0.3659 0.96705 L 0.36138 0.96649 L 0.35689 0.96571 L 0.35244 0.96471 L 0.34805 0.96349 L 0.34373 0.96205 L 0.33948 0.96041 L 0.33531 0.95855 L 0.33125 0.9565 L 0.32729 0.95424 L 0.32344 0.9518 L 0.31972 0.94917 L 0.31614 0.94635 L 0.31269 0.94337 L 0.3094 0.94022 L 0.30627 0.93691 L 0.30331 0.93345 L 0.30051 0.92985 L 0.2979 0.92611 L 0.29548 0.92225 L 0.29325 0.91828 L 0.29122 0.9142 L 0.28939 0.91003 L 0.28777 0.90577 L 0.28636 0.90143 L 0.28516 0.89704 L 0.28419 0.89258 L 0.28343 0.88809 L 0.2829 0.88357 L 0.28259 0.87902 L 0.2825 0.87446 L 0.28264 0.86991 L 0.283 0.86537 L 0.28359 0.86085 L 0.2844 0.85636 L 0.28543 0.85192 L 0.28667 0.84754 L 0.28813 0.84322 L 0.2898 0.83898 L 0.29168 0.83483 L 0.29376 0.83078 L 0.29603 0.82683 L 0.2985 0.823 L 0.30116 0.81929 L 0.30399 0.81572 L 0.30699 0.8123 L 0.31016 0.80903 L 0.31349 0.80591 L 0.31697 0.80297 L 0.32059 0.8002 L 0.32434 0.79761 L 0.32821 0.79521 L 0.3322 0.793 L 0.33629 0.79099 L 0.34047 0.78919 L 0.34474 0.78759 L 0.34908 0.78621 L 0.35349 0.78504 L 0.64651 0.71496 L 0.65091 0.7138 L 0.65525 0.71241 L 0.65951 0.71082 L 0.66369 0.70902 L 0.66778 0.70701 L 0.67176 0.70481 L 0.67563 0.70241 L 0.67938 0.69983 L 0.68299 0.69706 L 0.68647 0.69412 L 0.68979 0.69102 L 0.69296 0.68775 L 0.69597 0.68433 L 0.6988 0.68077 L 0.70145 0.67707 L 0.70392 0.67325 L 0.7062 0.66931 L 0.70828 0.66526 L 0.71016 0.66111 L 0.71183 0.65688 L 0.7133 0.65257 L 0.71454 0.64819 L 0.71558 0.64376 L 0.71639 0.63928 L 0.71698 0.63477 L 0.71735 0.63023 L 0.7175 0.62569 L 0.71742 0.62113 L 0.71712 0.61659 L 0.71659 0.61207 L 0.71585 0.60758 L 0.71488 0.60313 L 0.71369 0.59874 L 0.7123 0.59441 L 0.71068 0.59015 L 0.70887 0.58598 L 0.70685 0.5819 L 0.70463 0.57793 L 0.70221 0.57407 L 0.69962 0.57033 L 0.69684 0.56673 L 0.69388 0.56326 L 0.69076 0.55995 L 0.68748 0.55679 L 0.68405 0.5538 L 0.68048 0.55098 L 0.67677 0.54834 L 0.67294 0.54589 L 0.66899 0.54363 L 0.66493 0.54156 L 0.66078 0.5397 L 0.65654 0.53804 L 0.65223 0.5366 L 0.64784 0.53537 L 0.64341 0.53435 L 0.63893 0.53355 L 0.63441 0.53298 L 0.62987 0.53263 L 0.62532 0.5325 L 0.62077 0.5326 L 0.61623 0.53292 L 0.61171 0.53346 L 0.60723 0.53422 L 0.60278 0.53521 L 0.59839 0.53641 L 0.59407 0.53783 L 0.58982 0.53945 L 0.58565 0.54129 L 0.58158 0.54332 L 0.57762 0.54556 L 0.57377 0.54799 L 0.57004 0.5506 L 0.56645 0.55339 L 0.56299 0.55636 L 0.55969 0.55949 L 0.55655 0.56278 L 0.44345 0.68722 L 0.44032 0.6905 L 0.43703 0.69362 L 0.43359 0.69658 L 0.43001 0.69937 L 0.4263 0.70197 L 0.42246 0.70439 L 0.41851 0.70663 L 0.41446 0.70866 L 0.41031 0.7105 L 0.40608 0.71212 L 0.40177 0.71354 L 0.39739 0.71475 L 0.39297 0.71574 L 0.3885 0.71651 L 0.384 0.71706 L 0.37947 0.71739 L 0.37494 0.7175 L 0.3704 0.71739 L 0.36588 0.71705 L 0.36138 0.71649 L 0.35691 0.71571 L 0.35248 0.71472 L 0.34811 0.71351 L 0.3438 0.71208 L 0.33957 0.71045 L 0.33543 0.70861 L 0.33137 0.70657 L 0.32743 0.70433 L 0.3236 0.7019 L 0.31989 0.69929 L 0.31631 0.6965 L 0.31288 0.69354 L 0.30959 0.69041 L 0.30646 0.68712 L 0.3035 0.68369 L 0.30071 0.68011 L 0.2981 0.6764 L 0.29567 0.67257 L 0.29343 0.66863 L 0.29139 0.66457 L 0.28955 0.66043 L 0.28792 0.6562 L 0.28649 0.65189 L 0.28528 0.64752 L 0.28429 0.64309 L 0.28351 0.63862 L 0.28295 0.63412 L 0.28261 0.6296 L 0.2825 0.62506 L 0.28261 0.62053 L 0.28294 0.616 L 0.28349 0.6115 L 0.28426 0.60703 L 0.28525 0.60261 L 0.28646 0.59823 L 0.28788 0.59392 L 0.2895 0.58969 L 0.29134 0.58554 L 0.29337 0.58149 L 0.29561 0.57754 L 0.29803 0.5737 L 0.30063 0.56999 L 0.30342 0.56641 L 0.30638 0.56297 L 0.3095 0.55968 L 0.31278 0.55655 L 0.43722 0.44345 L 0.44052 0.4403 L 0.44366 0.43699 L 0.44663 0.43353 L 0.44943 0.42992 L 0.45205 0.42619 L 0.45448 0.42232 L 0.45672 0.41835 L 0.45875 0.41426 L 0.46059 0.41008 L 0.46221 0.40582 L 0.46363 0.40148 L 0.46483 0.39708 L 0.46581 0.39262 L 0.46656 0.38812 L 0.4671 0.38359 L 0.46741 0.37904 L 0.4675 0.37448 L 0.46736 0.36991 L 0.467 0.36537 L 0.46641 0.36084 L 0.4656 0.35635 L 0.46457 0.3519 L 0.46332 0.34752 L 0.46186 0.34319 L 0.46019 0.33895 L 0.4583 0.33479 L 0.45622 0.33073 L 0.45394 0.32678 L 0.45146 0.32295 L 0.4488 0.31924 L 0.44596 0.31567 L 0.44295 0.31224 L 0.43977 0.30896 L 0.43644 0.30585 L 0.43295 0.3029 L 0.42933 0.30013 L 0.42557 0.29755 L 0.42169 0.29515 L 0.41769 0.29294 L 0.41359 0.29094 L 0.4094 0.28913 L 0.40512 0.28754 L 0.40077 0.28616 L 0.39636 0.285 L 0.3919 0.28406 L 0.38739 0.28333 L 0.38285 0.28283 L 0.3783 0.28256 L 0.37374 0.28251 L 0.36918 0.28268 L 0.36463 0.28308 L 0.36011 0.28371 L 0.35563 0.28455 L 0.35119 0.28562 L 0.34681 0.2869 L 0.3425 0.2884 L 0.33827 0.29011 L 0.33413 0.29202 L 0.33008 0.29414 L 0.32615 0.29645 L 0.32234 0.29896 L 0.31865 0.30165 L 0.3151 0.30451 L 0.3117 0.30755 L 0.30845 0.31076 L 0.30536 0.31412 L 0.30244 0.31763 L 0.2997 0.32128 L 0.29714 0.32505 L 0.29477 0.32895 L 0.2926 0.33297 L 0.29063 0.33708 L 0.28886 0.34129 L 0.2873 0.34558 L 0.28596 0.34994 L 0.28483 0.35436 L 0.28392 0.35883 L 0.28324 0.36334 L 0.21676 0.88666 Z" fill-rule="nonzero"/></svg>