<svg xmlns="http://www.w3.org/2000/svg" xmlns:xlink="http://www.w3.org/1999/xlink" xmlns:inkscape="http://www.inkscape.org/namespaces/inkscape" version="1.1" width="584.00" height="624.50" viewBox="458.00 430.00 584.00 624.50">
<defs>
<clipPath id="clip_1">
<path transform="matrix(1,0,0,-1,0,1500)" d="M0 1500H1500V0H0Z"/>
</clipPath>
<path id="font_2_192" d="M.06500244 .7140045H.34700013C.46433006 .7140045 .55382797 .6845042 .6154938 .62550356 .6771596 .56650289 .70799258 .4786682 .70799258 .3619995 .70799258 .24399822 .67615768 .15416463 .6124878 .09249878 .5488281 .030832926 .45799766 0 .33999635 0H.06500244V.7140045M.51400759 .35899354C.51400759 .42299906 .50083926 .47150169 .47450257 .50450137 .4481659 .53750106 .40733338 .55400088 .352005 .55400088H.2519989V.16099549H.34700013C.4043325 .16099549 .4464976 .17782593 .47349549 .21148682 .50050356 .24515789 .51400759 .29432679 .51400759 .35899354Z"/>
<path id="font_2_206" d="M.06500244 .7140045H.352005C.45066834 .7140045 .5224965 .69383749 .5674896 .6535034 .61249288 .6131694 .6349945 .55833438 .6349945 .4889984 .6349945 .3956655 .59832766 .32799784 .5249939 .28599549L.673996 0H.47599793L.3560028 .24699402C.35266624 .24699402 .34949748 .24699402 .34649659 .24699402 .3434957 .24699402 .34033204 .24699402 .33700563 .24699402H.24499512V0H.06500244V.7140045M.45300294 .4810028C.45300294 .5110016 .4444987 .5333354 .42749024 .54800418 .41049195 .5626729 .3809967 .5700073 .33900453 .5700073H.24499512V.38900758H.34199525C.3833364 .38900758 .4121704 .39667259 .4284973 .41200257 .44483439 .42733256 .45300294 .45033265 .45300294 .4810028Z"/>
<path id="font_2_209" d="M.059005739 .29600526V.7140045H.25V.28700257C.25 .2383372 .25882975 .20266724 .27648927 .17999268 .29415895 .1573283 .32266236 .1459961 .3619995 .1459961 .40133668 .1459961 .42967225 .1573283 .44700624 .17999268 .4643402 .20266724 .4730072 .2383372 .4730072 .28700257V.7140045H.66400149V.29499818C.66400149 .19033306 .6380005 .11199951 .58599856 .05999756 .5339966 .0079956059 .45832826-.018005372 .35899354-.018005372 .2603302-.018005372 .18566387 .007659912 .1349945 .05899048 .08433533 .110331218 .059005739 .18933614 .059005739 .29600526Z"/>
<path id="font_2_201" d="M.06500244 .7140045H.28599549L.44500733 .23100281 .6040039 .7140045H.82299807V0H.647995V.42399598L.5099945 0H.3730011L.23599243 .42199708V0H.06500244V.7140045Z"/>
<path id="font_2_196" d="M.4920044 .28399659H.2559967V0H.06500244V.7140045H.2559967V.45300294H.4920044V.7140045H.68299868V0H.4920044V.28399659Z"/>
<path id="font_2_193" d="M.06500244 .7140045H.5780029V.56399539H.25300599V.43800355H.55799868V.28700257H.25300599V.1499939H.5970001L.58099368 0H.06500244V.7140045Z"/>
<path id="font_2_200" d="M.06500244 .7140045H.2559967V.16499329H.5740051L.55599978 0H.06500244V.7140045Z"/>
<path id="font_3_189" d="M.4900055 .18699646H.19500733L.12600708 0H.011993408L.28399659 .7140045H.40600587L.67700198 0H.55900576L.4900055 .18699646M.34199525 .6009979 .22599793 .28100587H.45799256L.34199525 .6009979Z"/>
<path id="font_3_200" d="M.07600403 .7140045H.18699646V.0980072H.5469971L.53300479 0H.07600403V.7140045Z"/>
<path id="font_3_190" d="M.07600403 .7140045H.32699586C.3929952 .7140045 .444163 .70600387 .48049928 .69000247 .5168355 .67400106 .54233297 .6521657 .5569916 .62449648 .57166036 .5968272 .57899478 .56566366 .57899478 .53100588 .57899478 .4983317 .5714925 .46899415 .55648806 .44299317 .5414937 .41700236 .5159963 .39533998 .47999574 .37800599 .5259959 .3600006 .55766299 .3358307 .57499697 .30549623 .59233096 .27516175 .6009979 .24232991 .6009979 .20700073 .6009979 .16766358 .5924988 .1323293 .5755005 .100997928 .5585022 .06966654 .5310008 .04499817 .49299623 .026992798 .45500184 .0089976 .40433757 0 .34100343 0H.07600403V.7140045M.4920044 .20700073C.4920044 .24633789 .48033653 .27633668 .45700074 .29699708 .43366496 .31766764 .39499919 .32800294 .34100343 .32800294H.18299866V.08799744H.3350067C.3756663 .08799744 .40732829 .092829387 .42999269 .102493289 .45266725 .11216736 .4686686 .12583415 .47799684 .14349365 .4873352 .16116333 .4920044 .18233235 .4920044 .20700073M.47200013 .5240021C.47200013 .55933126 .46033225 .58516439 .43699647 .60150149 .41366069 .61783859 .3743286 .6260071 .31900025 .6260071H.18299866V.41600038H.33200074C.3813375 .41600038 .41700236 .4251658 .43899537 .4434967 .46099855 .4618276 .47200013 .48866273 .47200013 .5240021Z"/>
<path id="font_3_193" d="M.07600403 .7140045H.54800418V.6199951H.18699646V.41400147H.5279999V.32000733H.18699646V.09399414H.56700137L.55200198 0H.07600403V.7140045Z"/>
<path id="font_3_206" d="M.07600403 .7140045H.32000733C.3726705 .7140045 .4161682 .7083333 .4505005 .69699099 .48483277 .68565878 .5119985 .67016097 .5319977 .65049746 .5519969 .6308339 .5661621 .608668 .5744934 .58399966 .5828349 .55933126 .5870056 .5339966 .5870056 .5079956 .5870056 .46266685 .57750448 .42366538 .5585022 .3909912 .53949996 .35832725 .5093333 .33266197 .46800233 .31399537L.6170044 0H.4960022L.3639984 .28900147C.3560028 .28833009 .34783427 .28782655 .3394928 .28749085 .3311615 .2871653 .32332865 .28700257 .31599427 .28700257H.18400574V0H.07600403V.7140045M.477005 .5039978C.477005 .5293376 .47233583 .55100509 .46299745 .56900027 .45366923 .5869954 .4371694 .60065719 .41349793 .60998538 .38983665 .61932376 .3570048 .6239929 .31500245 .6239929H.18400574V.37800599H.32600404C.36533103 .37800599 .3959961 .38316856 .41799928 .39349366 .44000245 .40382896 .45533753 .41832987 .46400453 .43699647 .4726715 .45566307 .477005 .47799684 .477005 .5039978Z"/>
<path id="font_3_208" d="M.25 .6159973H.018997193V.7140045H.59199526V.6159973H.36099244V0H.25V.6159973Z"/>
<path id="font_3_4" d="M.05999756 .1309967H.17300415V0H.05999756V.1309967Z"/>
<path id="font_3_3" d=""/>
<path id="font_3_191" d="M.052001954 .35499574C.052001954 .43566386 .06599935 .5039978 .09399414 .55999758 .12199911 .6159973 .16033428 .6586609 .20899964 .6879883 .257665 .71732589 .31333415 .7319946 .37600709 .7319946 .43533326 .7319946 .48416139 .7221629 .52249148 .7024994 .5608317 .6828359 .5911662 .6553345 .6134949 .6199951 .63583377 .58466598 .6516673 .54299929 .6609955 .49499513L.55200198 .47799684C.54066976 .52733358 .52216598 .5659993 .49649049 .59399417 .4708252 .6219991 .43032838 .6360016 .375 .6360016 .33100382 .6360016 .2935028 .6245015 .26249696 .60150149 .23150127 .5785014 .20800273 .546168 .19200135 .50450137 .17599996 .4628347 .16799927 .41366578 .16799927 .35699464 .16799927 .2723287 .18616231 .20466106 .2224884 .1539917 .25882469 .10333252 .31032817 .07800293 .3769989 .07800293 .41766868 .07800293 .45033265 .08483378 .47499085 .09849548 .4996592 .11216736 .51849368 .13116963 .53149417 .15550232 .5444946 .179835 .55332949 .20800273 .55799868 .2400055H.67100527C.66633608 .18999736 .65233358 .1456604 .6289978 .10699463 .60566207 .06832886 .572993 .037826539 .5309906 .015487671 .4889984-.006841024 .43700157-.018005372 .375-.018005372 .30832926-.018005372 .25082908-.0033365887 .20249939 .026000977 .15416973 .055338544 .117004398 .097839359 .09100342 .15350342 .06500244 .20916748 .052001954 .27633158 .052001954 .35499574Z"/>
<path id="font_3_202" d="M.07600403 .7140045H.18200684L.526001 .17599488V.7140045H.6320038V0H.5299988L.18200684 .53700259V0H.07600403V.7140045Z"/>
<clipPath id="clip_4">
<path transform="matrix(1,0,0,-1,0,1500)" d="M0 1500H1500V0H0Z"/>
</clipPath>
<clipPath id="clip_5">
<path transform="matrix(1,0,0,-1,0,1500)" d="M0 1500H1500V0H0Z"/>
</clipPath>
</defs>
<g inkscape:groupmode="layer" inkscape:label="Layer 1">
<g clip-path="url(#clip_1)">
<path transform="matrix(1,0,0,-1,522.6533,813.0287)" d="M0 0C0 2.204-.641 3.868-1.924 4.991-3.207 6.113-5.332 6.675-8.298 6.675H-17.076V-6.494H-8.598C-5.271-6.494-3.006-5.933-1.804-4.81-.601-3.688 0-2.085 0 0M-3.066 22.759C-4.31 23.621-6.433 24.052-9.44 24.052H-17.076V12.688H-8.779C-6.093 12.688-4.159 13.169-2.976 14.13-1.794 15.093-1.203 16.536-1.203 18.46-1.203 20.464-1.824 21.897-3.066 22.759M-24.653 30.245H-8.598C-4.75 30.245-1.724 29.773 .481 28.832 2.685 27.89 4.249 26.597 5.171 24.954 6.093 23.309 6.554 21.406 6.554 19.241 6.554 17.237 6.103 15.463 5.201 13.92 4.299 12.376 2.806 11.084 .722 10.042 3.368 8.999 5.211 7.577 6.254 5.773 7.295 3.969 7.817 1.985 7.817-.18 7.817-2.626 7.276-4.79 6.194-6.674 5.111-8.559 3.417-10.032 1.113-11.093-1.193-12.156-4.23-12.687-7.997-12.687H-24.653Z"/>
<path transform="matrix(1,0,0,-1,579.956,790.2396)" d="M0 0-6.374-18.46H6.433ZM-12.146-35.476H-20.264L-4.39 7.456H4.81L20.564-35.476H12.206L8.478-25.074H-8.479Z"/>
<path transform="matrix(1,0,0,-1,660.7391,804.0693)" d="M0 0C0 4.649-.982 8.227-2.946 10.733-4.911 13.238-8.038 14.491-12.326 14.491H-20.383V-14.792H-13.108C-8.578-14.792-5.261-13.509-3.157-10.944-1.052-8.379 0-4.73 0 0M-28.321 21.286H-12.507C-5.933 21.286-.832 19.521 2.796 15.994 6.424 12.466 8.238 7.175 8.238 .12 8.238-7.015 6.323-12.427 2.496-16.115-1.333-19.803-6.654-21.647-13.469-21.647H-28.321Z"/>
<path transform="matrix(1,0,0,-1,700.4534,782.7833)" d="M0 0H8.058V-35.897H31.448V-42.932H0Z"/>
<path transform="matrix(1,0,0,-1,777.538,790.2396)" d="M0 0-6.373-18.46H6.434ZM-12.146-35.476H-20.263L-4.389 7.456H4.81L20.564-35.476H12.207L8.479-25.074H-8.478Z"/>
<path transform="matrix(1,0,0,-1,825.8824,782.7833)" d="M0 0H7.396L26.758-30.365V0H34.334V-42.932H27.119L7.637-12.747V-42.932H0Z"/>
<path transform="matrix(1,0,0,-1,924.3441,804.0693)" d="M0 0C0 4.649-.983 8.227-2.947 10.733-4.911 13.238-8.038 14.491-12.326 14.491H-20.384V-14.792H-13.109C-8.579-14.792-5.261-13.509-3.157-10.944-1.052-8.379 0-4.73 0 0M-28.321 21.286H-12.507C-5.933 21.286-.833 19.521 2.796 15.994 6.423 12.466 8.237 7.175 8.237 .12 8.237-7.015 6.323-12.427 2.495-16.115-1.334-19.803-6.655-21.647-13.469-21.647H-28.321Z"/>
<path transform="matrix(1,0,0,-1,993.8223,813.9307)" d="M0 0C0 1.403-.432 2.646-1.293 3.728-2.156 4.81-3.93 5.593-6.614 6.073L-12.146 7.096C-16.596 7.897-19.974 9.23-22.278 11.094-24.584 12.958-25.736 15.834-25.736 19.723-25.736 22.489-25.024 24.793-23.601 26.638-22.179 28.481-20.224 29.874-17.738 30.816-15.253 31.758-12.387 32.23-9.14 32.23-5.412 32.23-2.396 31.698-.09 30.636 2.214 29.574 3.958 28.16 5.141 26.397 6.323 24.632 7.095 22.648 7.456 20.444L-.181 19.362C-.742 21.527-1.664 23.14-2.947 24.202-4.23 25.264-6.314 25.796-9.2 25.796-12.367 25.796-14.592 25.254-15.874 24.172-17.158 23.09-17.799 21.726-17.799 20.083-17.799 18.4-17.318 17.116-16.355 16.235-15.393 15.353-13.649 14.692-11.124 14.251L-5.171 13.109C-.521 12.226 2.866 10.783 4.991 8.779 7.115 6.774 8.177 3.908 8.177 .181 8.177-3.628 6.765-6.755 3.938-9.2 1.112-11.645-3.067-12.867-8.599-12.867-13.931-12.867-18.18-11.746-21.346-9.5-24.513-7.255-26.297-3.749-26.698 1.022H-18.701C-18.3-1.543-17.278-3.417-15.634-4.599-13.991-5.783-11.565-6.373-8.358-6.373-5.231-6.373-3.057-5.763-1.834-4.54-.612-3.317 0-1.804 0 0"/>
<path transform="matrix(1,0,0,-1,522.6533,885.1838)" d="M0 0C0 2.204-.641 3.868-1.924 4.991-3.207 6.113-5.332 6.675-8.298 6.675H-17.076V-6.494H-8.598C-5.271-6.494-3.006-5.933-1.804-4.81-.601-3.688 0-2.085 0 0M-3.066 22.759C-4.31 23.621-6.433 24.052-9.44 24.052H-17.076V12.688H-8.779C-6.093 12.688-4.159 13.169-2.976 14.13-1.794 15.093-1.203 16.536-1.203 18.46-1.203 20.464-1.824 21.897-3.066 22.759M-24.653 30.245H-8.598C-4.75 30.245-1.724 29.773 .481 28.832 2.685 27.89 4.249 26.597 5.171 24.954 6.093 23.309 6.554 21.406 6.554 19.241 6.554 17.237 6.103 15.463 5.201 13.92 4.299 12.376 2.806 11.084 .722 10.042 3.368 8.999 5.211 7.577 6.254 5.773 7.295 3.969 7.817 1.985 7.817-.18 7.817-2.626 7.276-4.79 6.194-6.674 5.111-8.559 3.417-10.032 1.113-11.093-1.193-12.156-4.23-12.687-7.997-12.687H-24.653Z"/>
<path transform="matrix(1,0,0,-1,568.1102,876.4046)" d="M0 0C0-4.851 1.002-8.669 3.006-11.455 5.011-14.241 8.017-15.634 12.026-15.634 15.954-15.634 18.931-14.241 20.955-11.455 22.979-8.669 23.992-4.851 23.992 0 23.992 4.81 22.979 8.618 20.955 11.425 18.931 14.23 15.954 15.634 12.026 15.634 8.017 15.634 5.011 14.23 3.006 11.425 1.002 8.618 0 4.81 0 0M-8.298-.12C-8.298 4.69-7.446 8.788-5.742 12.176-4.039 15.563-1.664 18.138 1.383 19.903 4.429 21.666 7.998 22.548 12.086 22.548 16.214 22.548 19.792 21.676 22.819 19.932 25.846 18.189 28.19 15.653 29.854 12.326 31.517 8.999 32.35 4.95 32.35 .18 32.35-4.63 31.517-8.729 29.854-12.116 28.19-15.504 25.835-18.09 22.789-19.873 19.742-21.656 16.134-22.548 11.966-22.548 7.877-22.548 4.309-21.676 1.263-19.933-1.784-18.189-4.139-15.654-5.802-12.326-7.466-9-8.298-4.931-8.298-.12"/>
<path transform="matrix(1,0,0,-1,638.8213,876.4046)" d="M0 0C0-4.851 1.002-8.669 3.006-11.455 5.011-14.241 8.017-15.634 12.026-15.634 15.954-15.634 18.931-14.241 20.955-11.455 22.979-8.669 23.992-4.851 23.992 0 23.992 4.81 22.979 8.618 20.955 11.425 18.931 14.23 15.954 15.634 12.026 15.634 8.017 15.634 5.011 14.23 3.006 11.425 1.002 8.618 0 4.81 0 0M-8.298-.12C-8.298 4.69-7.446 8.788-5.742 12.176-4.039 15.563-1.664 18.138 1.383 19.903 4.429 21.666 7.998 22.548 12.086 22.548 16.214 22.548 19.792 21.676 22.819 19.932 25.846 18.189 28.19 15.653 29.854 12.326 31.517 8.999 32.35 4.95 32.35 .18 32.35-4.63 31.517-8.729 29.854-12.116 28.19-15.504 25.835-18.09 22.789-19.873 19.742-21.656 16.134-22.548 11.966-22.548 7.877-22.548 4.309-21.676 1.263-19.933-1.784-18.189-4.139-15.654-5.802-12.326-7.466-9-8.298-4.931-8.298-.12"/>
<path transform="matrix(1,0,0,-1,710.9159,861.9736)" d="M0 0H-13.529V7.035H21.587V0H7.997V-35.897H0Z"/>
<path transform="matrix(1,0,0,-1,758.718,876.5849)" d="M0 0C0 4.85 .842 8.959 2.526 12.327 4.209 15.693 6.544 18.269 9.53 20.053 12.516 21.836 15.954 22.729 19.843 22.729 23.41 22.729 26.376 22.137 28.742 20.955 31.106 19.772 32.981 18.099 34.364 15.934 35.747 13.769 36.718 11.204 37.28 8.237L29.403 7.155C28.762 9.881 27.729 12.005 26.307 13.529 24.883 15.052 22.688 15.814 19.722 15.814 16.074 15.814 13.278 14.41 11.334 11.605 9.389 8.799 8.418 5.01 8.418 .24 8.418-4.611 9.4-8.439 11.365-11.244 13.328-14.05 16.154-15.453 19.843-15.453 23.09-15.453 25.454-14.622 26.938-12.958 28.42-11.295 29.363-9.12 29.764-6.434H37.941C37.661-9.561 36.789-12.326 35.326-14.732 33.862-17.137 31.839-19.011 29.253-20.354 26.667-21.696 23.49-22.368 19.722-22.368 15.634-22.368 12.116-21.486 9.17-19.723 6.223-17.959 3.958-15.414 2.375-12.086 .791-8.759 0-4.73 0 0"/>
<path transform="matrix(1,0,0,-1,842.8989,862.3946)" d="M0 0-6.373-18.46H6.434ZM-12.146-35.476H-20.263L-4.389 7.456H4.81L20.564-35.476H12.207L8.479-25.074H-8.478Z"/>
<path transform="matrix(1,0,0,-1,892.7457,854.9384)" d="M0 0H9.561L21.587-33.492 33.793 0H43.113V-42.932H35.777V-12.146L24.473-42.932H18.4L7.276-12.387V-42.932H0Z"/>
<path transform="matrix(1,0,0,-1,992.6194,868.5279)" d="M0 0C0 2.405-.622 4.188-1.864 5.352-3.107 6.514-5.452 7.095-8.899 7.095H-16.115V-7.336H-8.839C-6.514-7.336-4.711-7.045-3.427-6.464-2.144-5.883-1.253-5.041-.752-3.938-.251-2.836 0-1.524 0 0M-23.931 13.59H-8.839C-4.67 13.59-1.393 13.018 .992 11.875 3.377 10.733 5.071 9.149 6.073 7.126 7.075 5.101 7.577 2.786 7.577 .18 7.577-2.546 7.065-4.961 6.043-7.065 5.021-9.17 3.317-10.823 .932-12.026-1.453-13.228-4.711-13.83-8.839-13.83H-16.115V-29.343H-23.931Z"/>
<path transform="matrix(1,0,0,-1,522.6533,813.0287)" d="M0 0C0 2.204-.641 3.868-1.924 4.991-3.207 6.113-5.332 6.675-8.298 6.675H-17.076V-6.494H-8.598C-5.271-6.494-3.006-5.933-1.804-4.81-.601-3.688 0-2.085 0 0M-3.066 22.759C-4.31 23.621-6.433 24.052-9.44 24.052H-17.076V12.688H-8.779C-6.093 12.688-4.159 13.169-2.976 14.13-1.794 15.093-1.203 16.536-1.203 18.46-1.203 20.464-1.824 21.897-3.066 22.759M-24.653 30.245H-8.598C-4.75 30.245-1.724 29.773 .481 28.832 2.685 27.89 4.249 26.597 5.171 24.954 6.093 23.309 6.554 21.406 6.554 19.241 6.554 17.237 6.103 15.463 5.201 13.92 4.299 12.376 2.806 11.084 .722 10.042 3.368 8.999 5.211 7.577 6.254 5.773 7.295 3.969 7.817 1.985 7.817-.18 7.817-2.626 7.276-4.79 6.194-6.674 5.111-8.559 3.417-10.032 1.113-11.093-1.193-12.156-4.23-12.687-7.997-12.687H-24.653Z" fill="#0e1011"/>
<path transform="matrix(1,0,0,-1,579.956,790.2396)" d="M0 0-6.374-18.46H6.433ZM-12.146-35.476H-20.264L-4.39 7.456H4.81L20.564-35.476H12.206L8.478-25.074H-8.479Z" fill="#0e1011"/>
<path transform="matrix(1,0,0,-1,660.7391,804.0693)" d="M0 0C0 4.649-.982 8.227-2.946 10.733-4.911 13.238-8.038 14.491-12.326 14.491H-20.383V-14.792H-13.108C-8.578-14.792-5.261-13.509-3.157-10.944-1.052-8.379 0-4.73 0 0M-28.321 21.286H-12.507C-5.933 21.286-.832 19.521 2.796 15.994 6.424 12.466 8.238 7.175 8.238 .12 8.238-7.015 6.323-12.427 2.496-16.115-1.333-19.803-6.654-21.647-13.469-21.647H-28.321Z" fill="#0e1011"/>
<path transform="matrix(1,0,0,-1,700.4534,782.7833)" d="M0 0H8.058V-35.897H31.448V-42.932H0Z" fill="#0e1011"/>
<path transform="matrix(1,0,0,-1,777.538,790.2396)" d="M0 0-6.373-18.46H6.434ZM-12.146-35.476H-20.263L-4.389 7.456H4.81L20.564-35.476H12.207L8.479-25.074H-8.478Z" fill="#0e1011"/>
<path transform="matrix(1,0,0,-1,825.8824,782.7833)" d="M0 0H7.396L26.758-30.365V0H34.334V-42.932H27.119L7.637-12.747V-42.932H0Z" fill="#0e1011"/>
<path transform="matrix(1,0,0,-1,924.3441,804.0693)" d="M0 0C0 4.649-.983 8.227-2.947 10.733-4.911 13.238-8.038 14.491-12.326 14.491H-20.384V-14.792H-13.109C-8.579-14.792-5.261-13.509-3.157-10.944-1.052-8.379 0-4.73 0 0M-28.321 21.286H-12.507C-5.933 21.286-.833 19.521 2.796 15.994 6.423 12.466 8.237 7.175 8.237 .12 8.237-7.015 6.323-12.427 2.495-16.115-1.334-19.803-6.655-21.647-13.469-21.647H-28.321Z" fill="#0e1011"/>
<path transform="matrix(1,0,0,-1,993.8223,813.9307)" d="M0 0C0 1.403-.432 2.646-1.293 3.728-2.156 4.81-3.93 5.593-6.614 6.073L-12.146 7.096C-16.596 7.897-19.974 9.23-22.278 11.094-24.584 12.958-25.736 15.834-25.736 19.723-25.736 22.489-25.024 24.793-23.601 26.638-22.179 28.481-20.224 29.874-17.738 30.816-15.253 31.758-12.387 32.23-9.14 32.23-5.412 32.23-2.396 31.698-.09 30.636 2.214 29.574 3.958 28.16 5.141 26.397 6.323 24.632 7.095 22.648 7.456 20.444L-.181 19.362C-.742 21.527-1.664 23.14-2.947 24.202-4.23 25.264-6.314 25.796-9.2 25.796-12.367 25.796-14.592 25.254-15.874 24.172-17.158 23.09-17.799 21.726-17.799 20.083-17.799 18.4-17.318 17.116-16.355 16.235-15.393 15.353-13.649 14.692-11.124 14.251L-5.171 13.109C-.521 12.226 2.866 10.783 4.991 8.779 7.115 6.774 8.177 3.908 8.177 .181 8.177-3.628 6.765-6.755 3.938-9.2 1.112-11.645-3.067-12.867-8.599-12.867-13.931-12.867-18.18-11.746-21.346-9.5-24.513-7.255-26.297-3.749-26.698 1.022H-18.701C-18.3-1.543-17.278-3.417-15.634-4.599-13.991-5.783-11.565-6.373-8.358-6.373-5.231-6.373-3.057-5.763-1.834-4.54-.612-3.317 0-1.804 0 0" fill="#0e1011"/>
<path transform="matrix(1,0,0,-1,522.6533,885.1838)" d="M0 0C0 2.204-.641 3.868-1.924 4.991-3.207 6.113-5.332 6.675-8.298 6.675H-17.076V-6.494H-8.598C-5.271-6.494-3.006-5.933-1.804-4.81-.601-3.688 0-2.085 0 0M-3.066 22.759C-4.31 23.621-6.433 24.052-9.44 24.052H-17.076V12.688H-8.779C-6.093 12.688-4.159 13.169-2.976 14.13-1.794 15.093-1.203 16.536-1.203 18.46-1.203 20.464-1.824 21.897-3.066 22.759M-24.653 30.245H-8.598C-4.75 30.245-1.724 29.773 .481 28.832 2.685 27.89 4.249 26.597 5.171 24.954 6.093 23.309 6.554 21.406 6.554 19.241 6.554 17.237 6.103 15.463 5.201 13.92 4.299 12.376 2.806 11.084 .722 10.042 3.368 8.999 5.211 7.577 6.254 5.773 7.295 3.969 7.817 1.985 7.817-.18 7.817-2.626 7.276-4.79 6.194-6.674 5.111-8.559 3.417-10.032 1.113-11.093-1.193-12.156-4.23-12.687-7.997-12.687H-24.653Z" fill="#0e1011"/>
<path transform="matrix(1,0,0,-1,568.1102,876.4046)" d="M0 0C0-4.851 1.002-8.669 3.006-11.455 5.011-14.241 8.017-15.634 12.026-15.634 15.954-15.634 18.931-14.241 20.955-11.455 22.979-8.669 23.992-4.851 23.992 0 23.992 4.81 22.979 8.618 20.955 11.425 18.931 14.23 15.954 15.634 12.026 15.634 8.017 15.634 5.011 14.23 3.006 11.425 1.002 8.618 0 4.81 0 0M-8.298-.12C-8.298 4.69-7.446 8.788-5.742 12.176-4.039 15.563-1.664 18.138 1.383 19.903 4.429 21.666 7.998 22.548 12.086 22.548 16.214 22.548 19.792 21.676 22.819 19.932 25.846 18.189 28.19 15.653 29.854 12.326 31.517 8.999 32.35 4.95 32.35 .18 32.35-4.63 31.517-8.729 29.854-12.116 28.19-15.504 25.835-18.09 22.789-19.873 19.742-21.656 16.134-22.548 11.966-22.548 7.877-22.548 4.309-21.676 1.263-19.933-1.784-18.189-4.139-15.654-5.802-12.326-7.466-9-8.298-4.931-8.298-.12" fill="#0e1011"/>
<path transform="matrix(1,0,0,-1,638.8213,876.4046)" d="M0 0C0-4.851 1.002-8.669 3.006-11.455 5.011-14.241 8.017-15.634 12.026-15.634 15.954-15.634 18.931-14.241 20.955-11.455 22.979-8.669 23.992-4.851 23.992 0 23.992 4.81 22.979 8.618 20.955 11.425 18.931 14.23 15.954 15.634 12.026 15.634 8.017 15.634 5.011 14.23 3.006 11.425 1.002 8.618 0 4.81 0 0M-8.298-.12C-8.298 4.69-7.446 8.788-5.742 12.176-4.039 15.563-1.664 18.138 1.383 19.903 4.429 21.666 7.998 22.548 12.086 22.548 16.214 22.548 19.792 21.676 22.819 19.932 25.846 18.189 28.19 15.653 29.854 12.326 31.517 8.999 32.35 4.95 32.35 .18 32.35-4.63 31.517-8.729 29.854-12.116 28.19-15.504 25.835-18.09 22.789-19.873 19.742-21.656 16.134-22.548 11.966-22.548 7.877-22.548 4.309-21.676 1.263-19.933-1.784-18.189-4.139-15.654-5.802-12.326-7.466-9-8.298-4.931-8.298-.12" fill="#0e1011"/>
<path transform="matrix(1,0,0,-1,710.9159,861.9736)" d="M0 0H-13.529V7.035H21.587V0H7.997V-35.897H0Z" fill="#0e1011"/>
<path transform="matrix(1,0,0,-1,758.718,876.5849)" d="M0 0C0 4.85 .842 8.959 2.526 12.327 4.209 15.693 6.544 18.269 9.53 20.053 12.516 21.836 15.954 22.729 19.843 22.729 23.41 22.729 26.376 22.137 28.742 20.955 31.106 19.772 32.981 18.099 34.364 15.934 35.747 13.769 36.718 11.204 37.28 8.237L29.403 7.155C28.762 9.881 27.729 12.005 26.307 13.529 24.883 15.052 22.688 15.814 19.722 15.814 16.074 15.814 13.278 14.41 11.334 11.605 9.389 8.799 8.418 5.01 8.418 .24 8.418-4.611 9.4-8.439 11.365-11.244 13.328-14.05 16.154-15.453 19.843-15.453 23.09-15.453 25.454-14.622 26.938-12.958 28.42-11.295 29.363-9.12 29.764-6.434H37.941C37.661-9.561 36.789-12.326 35.326-14.732 33.862-17.137 31.839-19.011 29.253-20.354 26.667-21.696 23.49-22.368 19.722-22.368 15.634-22.368 12.116-21.486 9.17-19.723 6.223-17.959 3.958-15.414 2.375-12.086 .791-8.759 0-4.73 0 0" fill="#0e1011"/>
<path transform="matrix(1,0,0,-1,842.8989,862.3946)" d="M0 0-6.373-18.46H6.434ZM-12.146-35.476H-20.263L-4.389 7.456H4.81L20.564-35.476H12.207L8.479-25.074H-8.478Z" fill="#0e1011"/>
<path transform="matrix(1,0,0,-1,892.7457,854.9384)" d="M0 0H9.561L21.587-33.492 33.793 0H43.113V-42.932H35.777V-12.146L24.473-42.932H18.4L7.276-12.387V-42.932H0Z" fill="#0e1011"/>
<path transform="matrix(1,0,0,-1,992.6194,868.5279)" d="M0 0C0 2.405-.622 4.188-1.864 5.352-3.107 6.514-5.452 7.095-8.899 7.095H-16.115V-7.336H-8.839C-6.514-7.336-4.711-7.045-3.427-6.464-2.144-5.883-1.253-5.041-.752-3.938-.251-2.836 0-1.524 0 0M-23.931 13.59H-8.839C-4.67 13.59-1.393 13.018 .992 11.875 3.377 10.733 5.071 9.149 6.073 7.126 7.075 5.101 7.577 2.786 7.577 .18 7.577-2.546 7.065-4.961 6.043-7.065 5.021-9.17 3.317-10.823 .932-12.026-1.453-13.228-4.711-13.83-8.839-13.83H-16.115V-29.343H-23.931Z" fill="#0e1011"/>
</g>
<use data-text="D" xlink:href="#font_2_192" transform="matrix(25.8586,0,0,-26.5677,625.0879,981.1292)" fill="#0e1011"/>
<use data-text="R" xlink:href="#font_2_206" transform="matrix(25.8586,0,0,-26.5677,652.26528,981.1292)" fill="#0e1011"/>
<use data-text="U" xlink:href="#font_2_209" transform="matrix(25.8586,0,0,-26.5677,677.73599,981.1292)" fill="#0e1011"/>
<use data-text="M" xlink:href="#font_2_201" transform="matrix(25.8586,0,0,-26.5677,704.18936,981.1292)" fill="#0e1011"/>
<use data-text="H" xlink:href="#font_2_196" transform="matrix(25.8586,0,0,-26.5677,734.90939,981.1292)" fill="#0e1011"/>
<use data-text="E" xlink:href="#font_2_193" transform="matrix(25.8586,0,0,-26.5677,762.00918,981.1292)" fill="#0e1011"/>
<use data-text="L" xlink:href="#font_2_200" transform="matrix(25.8586,0,0,-26.5677,785.92837,981.1292)" fill="#0e1011"/>
<use data-text="L" xlink:href="#font_2_200" transform="matrix(25.8586,0,0,-26.5677,809.04598,981.1292)" fill="#0e1011"/>
<use data-text="E" xlink:href="#font_2_193" transform="matrix(25.8586,0,0,-26.5677,832.1636,981.1292)" fill="#0e1011"/>
<use data-text="R" xlink:href="#font_2_206" transform="matrix(25.8586,0,0,-26.5677,856.08279,981.1292)" fill="#0e1011"/>
<use data-text="A" xlink:href="#font_3_189" transform="matrix(18.4704,0,0,-18.9769,655.335,1014.02249)" fill="#0e1011"/>
<use data-text="L" xlink:href="#font_3_200" transform="matrix(18.4704,0,0,-18.9769,673.60226,1014.02249)" fill="#0e1011"/>
<use data-text="B" xlink:href="#font_3_190" transform="matrix(18.4704,0,0,-18.9769,689.6345,1014.02249)" fill="#0e1011"/>
<use data-text="E" xlink:href="#font_3_193" transform="matrix(18.4704,0,0,-18.9769,706.9967,1014.02249)" fill="#0e1011"/>
<use data-text="R" xlink:href="#font_3_206" transform="matrix(18.4704,0,0,-18.9769,723.62008,1014.02249)" fill="#0e1011"/>
<use data-text="T" xlink:href="#font_3_208" transform="matrix(18.4704,0,0,-18.9769,740.6682,1014.02249)" fill="#0e1011"/>
<use data-text="A" xlink:href="#font_3_189" transform="matrix(18.4704,0,0,-18.9769,755.8324,1014.02249)" fill="#0e1011"/>
<use data-text="." xlink:href="#font_3_4" transform="matrix(18.4704,0,0,-18.9769,774.3582,1014.02249)" fill="#0e1011"/>
<use data-text=" " xlink:href="#font_3_3" transform="matrix(18.4704,0,0,-18.9769,784.20297,1014.02249)" fill="#0e1011"/>
<use data-text="C" xlink:href="#font_3_191" transform="matrix(18.4704,0,0,-18.9769,793.82608,1014.02249)" fill="#0e1011"/>
<use data-text="A" xlink:href="#font_3_189" transform="matrix(18.4704,0,0,-18.9769,812.2041,1014.02249)" fill="#0e1011"/>
<use data-text="N" xlink:href="#font_3_202" transform="matrix(18.4704,0,0,-18.9769,830.4713,1014.02249)" fill="#0e1011"/>
<g clip-path="url(#clip_4)">
<path transform="matrix(1,0,0,-1,782.4395,470.2079)" d="M0 0 1.197-.029 2.39-.116 3.576-.264 4.758-.469 5.924-.73 7.079-1.05 8.213-1.424 9.331-1.854 10.426-2.339 11.494-2.877 12.536-3.465 13.546-4.106 14.524-4.795 15.468-5.531 16.376-6.314 17.243-7.137 18.069-8.004 18.85-8.909 19.588-9.853 20.276-10.832 20.917-11.842 21.508-12.881 22.046-13.952 22.531-15.044 22.964-16.159 23.341-17.296 23.66-18.449 23.924-19.617 24.13-20.796 24.277-21.983 24.364-23.177 24.396-24.372 24.367-25.57 24.28-26.764 24.135-27.951 23.932-29.13 23.671-30.298 23.354-31.451 22.98-32.588 22.55-33.706 22.067-34.8 21.529-35.871 20.941-36.913 20.303-37.923 19.614-38.904 18.879-39.848 18.098-40.756 17.275-41.623 16.41-42.449-16.41-72.278-17.278-73.109-18.106-73.982-18.889-74.894-19.628-75.844-20.319-76.828-20.959-77.846-21.548-78.893-22.086-79.969-22.571-81.071-22.998-82.195-23.373-83.337-23.689-84.497-23.948-85.671-24.148-86.858-24.29-88.052-24.372-89.25-24.396-90.452-24.359-91.655-24.264-92.855-24.111-94.047-23.9-95.231-23.628-96.402-23.301-97.56-22.916-98.7-22.476-99.818-21.98-100.915-21.434-101.983-20.833-103.025-20.181-104.038-19.482-105.016-18.733-105.958-17.942-106.862-17.106-107.725-16.228-108.548-15.31-109.326-14.355-110.056-13.366-110.739-12.343-111.375-11.291-111.955-10.212-112.488-9.11-112.963-7.981-113.385-6.836-113.749-5.673-114.057 71.608-132.54 72.771-132.849 73.919-133.213 75.047-133.635 76.15-134.112 77.231-134.642 78.283-135.228 79.307-135.861 80.296-136.546 81.25-137.277 82.168-138.055 83.047-138.878 83.885-139.743 84.677-140.65 85.425-141.592 86.124-142.57 86.776-143.583 87.375-144.627 87.923-145.698 88.419-146.795 88.857-147.916 89.242-149.055 89.569-150.216 89.838-151.387 90.049-152.571 90.202-153.766 90.297-154.966 90.331-156.169 90.305-157.371 90.223-158.574 90.078-159.769 89.877-160.953 89.616-162.129 89.297-163.289 88.923-164.434 88.493-165.558 88.008-166.657 87.467-167.734 86.876-168.783 86.233-169.799 85.542-170.785 84.8-171.734 84.014-172.644 83.186-173.517 17.251-239.452 16.384-240.278 15.476-241.059 14.532-241.797 13.554-242.485 12.541-243.126 11.499-243.717 10.431-244.255 9.336-244.74 8.218-245.17 7.081-245.547 5.929-245.867 4.76-246.128 3.579-246.333 2.392-246.479 1.197-246.568 0-246.597H-65.935L-67.138-246.568-68.335-246.479-69.527-246.331-70.711-246.125-71.885-245.861-73.043-245.54-74.182-245.16-75.303-244.727-76.403-244.237-77.474-243.696-78.518-243.1-79.534-242.456-80.515-241.763-81.459-241.019-82.369-240.233-83.236-239.402-84.062-238.529-84.843-237.617-85.581-236.667-86.269-235.681-86.908-234.663-87.496-233.616-88.031-232.54-88.514-231.44-88.941-230.316-89.313-229.172-89.63-228.014-89.885-226.838-90.086-225.654-90.226-224.461-90.307-223.261-90.331-222.059-90.294-220.859-90.199-219.661-90.044-218.469-89.83-217.285-89.558-216.114-89.231-214.959-88.846-213.82-88.406-212.701-87.91-211.607-87.361-210.539-86.763-209.497-86.111-208.487-85.41-207.508-84.663-206.567-83.872-205.665-83.036-204.802-82.158-203.979-81.24-203.204-80.285-202.473-79.296-201.79-78.276-201.157-77.223-200.574-76.144-200.044-75.042-199.57-73.916-199.148-72.771-198.784-71.608-198.475 5.673-179.992 6.833-179.686 7.978-179.32 9.102-178.9 10.204-178.426 11.283-177.895 12.333-177.315 13.353-176.682 14.342-176.002 15.294-175.271 16.212-174.496 17.088-173.678 17.924-172.816 18.718-171.914 19.464-170.975 20.163-169.999 20.814-168.992 21.416-167.952 21.964-166.884 22.46-165.79 22.901-164.674 23.288-163.537 23.615-162.382 23.89-161.214 24.103-160.032 24.259-158.843 24.356-157.645 24.396-156.448 24.375-155.245 24.296-154.048 24.156-152.856 23.961-151.672 23.705-150.498 23.391-149.34 23.025-148.198 22.597-147.075 22.12-145.975 21.587-144.899 21.002-143.852 20.363-142.834 19.68-141.847 18.947-140.898 18.166-139.983 17.344-139.11 16.479-138.276 15.574-137.488 14.632-136.744 13.654-136.048 12.644-135.402 11.602-134.806 10.531-134.26 9.437-133.769 8.318-133.331 7.182-132.951 6.024-132.627 4.855-132.358 3.674-132.147 2.482-131.997 1.284-131.904 .084-131.87-1.116-131.896-2.313-131.981-3.505-132.123-4.687-132.324-5.86-132.585-7.018-132.901-8.157-133.276-9.278-133.703-10.378-134.188-11.452-134.724-12.496-135.315-13.511-135.955-14.495-136.644-15.442-137.38-16.355-138.163-17.225-138.988-18.053-139.856-47.882-172.676-48.708-173.541-49.575-174.364-50.483-175.145-51.427-175.88-52.405-176.566-53.418-177.204-54.46-177.795-55.528-178.331-56.622-178.816-57.738-179.243-58.875-179.618-60.03-179.937-61.196-180.198-62.375-180.401-63.561-180.546-64.756-180.633-65.951-180.662-67.148-180.633-68.34-180.543-69.527-180.396-70.706-180.19-71.875-179.929-73.027-179.61-74.164-179.233-75.279-178.803-76.371-178.317-77.442-177.779-78.481-177.189-79.491-176.548-80.47-175.859-81.414-175.124-82.319-174.343-83.186-173.517-84.012-172.65-84.793-171.745-85.528-170.801-86.217-169.822-86.858-168.812-87.448-167.773-87.986-166.702-88.472-165.61-88.902-164.495-89.279-163.358-89.598-162.206-89.859-161.037-90.065-159.858-90.212-158.671-90.302-157.479-90.331-156.282-90.302-155.087-90.215-153.892-90.07-152.706-89.867-151.527-89.606-150.361-89.287-149.206-88.912-148.069-88.485-146.953-88-145.859-87.464-144.791-86.873-143.749-86.235-142.736-85.549-141.758-84.814-140.814-84.033-139.906-83.21-139.039-82.345-138.213-49.525-108.384-48.655-107.553-47.827-106.68-47.043-105.768-46.305-104.816-45.614-103.832-44.973-102.811-44.382-101.764-43.847-100.685-43.362-99.583-42.934-98.459-42.56-97.315-42.243-96.154-41.985-94.978-41.787-93.791-41.645-92.597-41.563-91.397-41.539-90.194-41.576-88.989-41.671-87.791-41.827-86.596-42.04-85.412-42.312-84.239-42.642-83.083-43.027-81.941-43.467-80.823-43.966-79.726-44.514-78.655-45.115-77.613-45.769-76.603-46.471-75.625-47.22-74.683-48.014-73.779-48.853-72.914-49.731-72.093-50.651-71.315-51.606-70.585-52.598-69.904-53.621-69.271-54.676-68.688-55.757-68.161-56.862-67.684-57.991-67.264-59.138-66.9-60.302-66.594-61.478-66.346-62.667-66.154-63.865-66.022-65.065-65.951-66.267-65.938-67.47-65.982-68.67-66.088-69.862-66.254-71.044-66.476-72.215-66.758-73.37-67.096-74.507-67.491-75.622-67.942-76.714-68.446-77.782-69.005-78.819-69.614-79.824-70.276-80.797-70.986-81.733-71.74-82.63-72.542-83.487-73.388-84.302-74.274-85.072-75.2-85.795-76.163-86.47-77.157-87.095-78.186-87.667-79.246-88.187-80.33-88.654-81.44-89.065-82.572-89.419-83.722-89.717-84.887-89.957-86.066-90.136-87.256-107.669-225.276-107.849-226.466-108.089-227.645-108.387-228.811-108.74-229.96-109.152-231.092-109.618-232.202-110.138-233.286-110.71-234.346-111.335-235.375-112.01-236.369-112.733-237.332-113.503-238.258-114.318-239.144-115.175-239.99-116.072-240.792-117.008-241.547-117.982-242.256-118.986-242.918-120.023-243.527-121.091-244.086-122.183-244.59-123.299-245.041-124.435-245.437-125.591-245.774-126.762-246.057-127.943-246.278-129.135-246.444-130.335-246.55-131.538-246.595-132.741-246.581-133.941-246.51-135.138-246.378-136.327-246.186-137.504-245.938-138.667-245.632-139.814-245.268-140.943-244.849-142.048-244.371-143.129-243.844-144.184-243.261-145.208-242.628-146.199-241.947-147.154-241.217-148.074-240.439-148.953-239.619-149.791-238.754-150.585-237.849-151.334-236.907-152.036-235.929-152.69-234.919-153.291-233.877-153.84-232.806-154.338-231.709-154.779-230.591-155.164-229.449-155.493-228.294-155.765-227.12-155.979-225.936-156.134-224.741-156.229-223.544-156.266-222.338-156.242-221.136-156.161-219.936-156.018-218.741-155.82-217.554-155.562-216.378-155.245-215.217-154.871-214.073-154.444-212.949-153.958-211.847-153.423-210.768-152.832-209.721-152.191-208.7-151.5-207.717-150.762-206.764-149.979-205.852-149.15-204.979-148.28-204.148-115.46-174.319-114.598-173.494-113.772-172.626-112.994-171.721-112.258-170.777-111.573-169.799-110.934-168.789-110.346-167.749-109.808-166.681-109.326-165.587-108.896-164.471-108.521-163.337-108.202-162.184-107.941-161.019-107.738-159.84-107.59-158.653-107.503-157.461-107.474-156.266-107.503-155.071-107.59-153.879-107.738-152.692-107.941-151.513-108.202-150.348-108.521-149.195-108.896-148.061-109.326-146.945-109.808-145.851-110.346-144.783-110.934-143.744-111.573-142.734-112.258-141.755-112.994-140.811-113.772-139.906-114.598-139.039-115.46-138.213-148.28-108.384-149.145-107.559-149.968-106.691-150.749-105.784-151.485-104.839-152.17-103.861-152.809-102.848-153.399-101.806-153.935-100.738-154.42-99.644-154.847-98.528-155.222-97.391-155.541-96.236-155.802-95.07-156.005-93.891-156.15-92.705-156.237-91.51-156.266-90.315-156.237-89.118-156.147-87.926-156-86.739-155.794-85.56-155.533-84.392-155.214-83.239-154.837-82.102-154.407-80.987-153.922-79.895-153.383-78.824-152.793-77.785-152.152-76.775-151.463-75.796-150.728-74.852-149.947-73.947-149.121-73.08-83.186-7.145-82.319-6.319-81.411-5.538-80.467-4.8-79.489-4.112-78.476-3.471-77.434-2.88-76.366-2.342-75.271-1.857-74.153-1.427-73.016-1.05-71.864-.73-70.696-.469-69.514-.264-68.327-.119-67.132-.029-65.935 0Z" fill="#0e1011"/>
<path transform="matrix(1,0,0,-1,522.6533,813.0287)" d="M0 0C0 2.204-.641 3.868-1.924 4.991-3.207 6.113-5.332 6.675-8.298 6.675H-17.076V-6.494H-8.598C-5.271-6.494-3.006-5.933-1.804-4.81-.601-3.688 0-2.085 0 0M-3.066 22.759C-4.31 23.621-6.433 24.052-9.44 24.052H-17.076V12.688H-8.779C-6.093 12.688-4.159 13.169-2.976 14.13-1.794 15.093-1.203 16.536-1.203 18.46-1.203 20.464-1.824 21.897-3.066 22.759M-24.653 30.245H-8.598C-4.75 30.245-1.724 29.773 .481 28.832 2.685 27.89 4.249 26.597 5.171 24.954 6.093 23.309 6.554 21.406 6.554 19.241 6.554 17.237 6.103 15.463 5.201 13.92 4.299 12.376 2.806 11.084 .722 10.042 3.368 8.999 5.211 7.577 6.254 5.773 7.295 3.969 7.817 1.985 7.817-.18 7.817-2.626 7.276-4.79 6.194-6.674 5.111-8.559 3.417-10.032 1.113-11.093-1.193-12.156-4.23-12.687-7.997-12.687H-24.653Z"/>
<path transform="matrix(1,0,0,-1,579.956,790.2395)" d="M0 0-6.374-18.46H6.433ZM-12.146-35.476H-20.264L-4.39 7.456H4.81L20.564-35.476H12.206L8.478-25.074H-8.479Z"/>
<path transform="matrix(1,0,0,-1,660.7391,804.0692)" d="M0 0C0 4.649-.982 8.227-2.946 10.733-4.911 13.238-8.038 14.491-12.326 14.491H-20.383V-14.792H-13.108C-8.578-14.792-5.261-13.509-3.157-10.944-1.052-8.379 0-4.73 0 0M-28.321 21.286H-12.507C-5.933 21.286-.832 19.521 2.796 15.994 6.424 12.466 8.238 7.175 8.238 .12 8.238-7.015 6.323-12.427 2.496-16.115-1.333-19.803-6.654-21.647-13.469-21.647H-28.321Z"/>
<path transform="matrix(1,0,0,-1,700.4534,782.7833)" d="M0 0H8.058V-35.897H31.448V-42.932H0Z"/>
<path transform="matrix(1,0,0,-1,777.538,790.2395)" d="M0 0-6.373-18.46H6.434ZM-12.146-35.476H-20.263L-4.389 7.456H4.81L20.564-35.476H12.207L8.479-25.074H-8.478Z"/>
<path transform="matrix(1,0,0,-1,825.8824,782.7833)" d="M0 0H7.396L26.758-30.365V0H34.334V-42.932H27.119L7.637-12.747V-42.932H0Z"/>
<path transform="matrix(1,0,0,-1,924.3441,804.0692)" d="M0 0C0 4.649-.983 8.227-2.947 10.733-4.911 13.238-8.038 14.491-12.326 14.491H-20.384V-14.792H-13.109C-8.579-14.792-5.261-13.509-3.157-10.944-1.052-8.379 0-4.73 0 0M-28.321 21.286H-12.507C-5.933 21.286-.833 19.521 2.796 15.994 6.423 12.466 8.237 7.175 8.237 .12 8.237-7.015 6.323-12.427 2.495-16.115-1.334-19.803-6.655-21.647-13.469-21.647H-28.321Z"/>
<path transform="matrix(1,0,0,-1,993.8223,813.9307)" d="M0 0C0 1.403-.432 2.646-1.293 3.728-2.156 4.81-3.93 5.593-6.614 6.073L-12.146 7.096C-16.596 7.897-19.974 9.23-22.278 11.094-24.584 12.958-25.736 15.834-25.736 19.723-25.736 22.489-25.024 24.793-23.601 26.638-22.179 28.481-20.224 29.874-17.738 30.816-15.253 31.758-12.387 32.23-9.14 32.23-5.412 32.23-2.396 31.698-.09 30.636 2.214 29.574 3.958 28.16 5.141 26.397 6.323 24.632 7.095 22.648 7.456 20.444L-.181 19.362C-.742 21.527-1.664 23.14-2.947 24.202-4.23 25.264-6.314 25.796-9.2 25.796-12.367 25.796-14.592 25.254-15.874 24.172-17.158 23.09-17.799 21.726-17.799 20.083-17.799 18.4-17.318 17.116-16.355 16.235-15.393 15.353-13.649 14.692-11.124 14.251L-5.171 13.109C-.521 12.226 2.866 10.783 4.991 8.779 7.115 6.774 8.177 3.908 8.177 .181 8.177-3.628 6.765-6.755 3.938-9.2 1.112-11.645-3.067-12.867-8.599-12.867-13.931-12.867-18.18-11.746-21.346-9.5-24.513-7.255-26.297-3.749-26.698 1.022H-18.701C-18.3-1.543-17.278-3.417-15.634-4.6-13.991-5.783-11.565-6.373-8.358-6.373-5.231-6.373-3.057-5.763-1.834-4.54-.612-3.317 0-1.804 0 0"/>
<path transform="matrix(1,0,0,-1,522.6533,885.1838)" d="M0 0C0 2.204-.641 3.868-1.924 4.991-3.207 6.113-5.332 6.675-8.298 6.675H-17.076V-6.494H-8.598C-5.271-6.494-3.006-5.933-1.804-4.81-.601-3.688 0-2.085 0 0M-3.066 22.759C-4.31 23.621-6.433 24.052-9.44 24.052H-17.076V12.688H-8.779C-6.093 12.688-4.159 13.169-2.976 14.13-1.794 15.093-1.203 16.536-1.203 18.46-1.203 20.464-1.824 21.897-3.066 22.759M-24.653 30.245H-8.598C-4.75 30.245-1.724 29.773 .481 28.832 2.685 27.89 4.249 26.597 5.171 24.954 6.093 23.309 6.554 21.406 6.554 19.241 6.554 17.237 6.103 15.463 5.201 13.92 4.299 12.376 2.806 11.084 .722 10.042 3.368 8.999 5.211 7.577 6.254 5.773 7.295 3.969 7.817 1.985 7.817-.18 7.817-2.626 7.276-4.79 6.194-6.674 5.111-8.559 3.417-10.032 1.113-11.093-1.193-12.156-4.23-12.687-7.997-12.687H-24.653Z"/>
<path transform="matrix(1,0,0,-1,568.1102,876.4045)" d="M0 0C0-4.851 1.002-8.669 3.006-11.455 5.011-14.241 8.017-15.634 12.026-15.634 15.954-15.634 18.931-14.241 20.955-11.455 22.979-8.669 23.992-4.851 23.992 0 23.992 4.81 22.979 8.618 20.955 11.425 18.931 14.23 15.954 15.634 12.026 15.634 8.017 15.634 5.011 14.23 3.006 11.425 1.002 8.618 0 4.81 0 0M-8.298-.12C-8.298 4.69-7.446 8.788-5.742 12.176-4.039 15.563-1.664 18.138 1.383 19.903 4.429 21.666 7.998 22.548 12.086 22.548 16.214 22.548 19.792 21.676 22.819 19.932 25.846 18.189 28.19 15.653 29.854 12.326 31.517 8.999 32.35 4.95 32.35 .18 32.35-4.63 31.517-8.729 29.854-12.116 28.19-15.504 25.835-18.09 22.789-19.873 19.742-21.656 16.134-22.548 11.966-22.548 7.877-22.548 4.309-21.676 1.263-19.933-1.784-18.189-4.139-15.654-5.802-12.326-7.466-9-8.298-4.931-8.298-.12"/>
<path transform="matrix(1,0,0,-1,638.8213,876.4045)" d="M0 0C0-4.851 1.002-8.669 3.006-11.455 5.011-14.241 8.017-15.634 12.026-15.634 15.954-15.634 18.931-14.241 20.955-11.455 22.979-8.669 23.992-4.851 23.992 0 23.992 4.81 22.979 8.618 20.955 11.425 18.931 14.23 15.954 15.634 12.026 15.634 8.017 15.634 5.011 14.23 3.006 11.425 1.002 8.618 0 4.81 0 0M-8.298-.12C-8.298 4.69-7.446 8.788-5.742 12.176-4.039 15.563-1.664 18.138 1.383 19.903 4.429 21.666 7.998 22.548 12.086 22.548 16.214 22.548 19.792 21.676 22.819 19.932 25.846 18.189 28.19 15.653 29.854 12.326 31.517 8.999 32.35 4.95 32.35 .18 32.35-4.63 31.517-8.729 29.854-12.116 28.19-15.504 25.835-18.09 22.789-19.873 19.742-21.656 16.134-22.548 11.966-22.548 7.877-22.548 4.309-21.676 1.263-19.933-1.784-18.189-4.139-15.654-5.802-12.326-7.466-9-8.298-4.931-8.298-.12"/>
<path transform="matrix(1,0,0,-1,710.9159,861.9735)" d="M0 0H-13.529V7.035H21.587V0H7.997V-35.897H0Z"/>
<path transform="matrix(1,0,0,-1,758.718,876.5848)" d="M0 0C0 4.85 .842 8.959 2.526 12.326 4.209 15.693 6.544 18.269 9.53 20.053 12.516 21.836 15.954 22.729 19.843 22.729 23.41 22.729 26.376 22.137 28.742 20.955 31.106 19.772 32.981 18.099 34.364 15.934 35.747 13.769 36.718 11.204 37.28 8.237L29.403 7.155C28.762 9.881 27.729 12.005 26.307 13.529 24.883 15.052 22.688 15.814 19.722 15.814 16.074 15.814 13.278 14.41 11.334 11.605 9.389 8.799 8.418 5.01 8.418 .24 8.418-4.611 9.4-8.439 11.365-11.244 13.328-14.05 16.154-15.453 19.843-15.453 23.09-15.453 25.454-14.622 26.938-12.958 28.42-11.295 29.363-9.12 29.764-6.434H37.941C37.661-9.561 36.789-12.326 35.326-14.732 33.862-17.137 31.839-19.011 29.253-20.354 26.667-21.696 23.49-22.368 19.722-22.368 15.634-22.368 12.116-21.486 9.17-19.723 6.223-17.959 3.958-15.414 2.375-12.086 .791-8.759 0-4.73 0 0"/>
<path transform="matrix(1,0,0,-1,842.8989,862.3946)" d="M0 0-6.373-18.46H6.434ZM-12.146-35.476H-20.263L-4.389 7.456H4.81L20.564-35.476H12.207L8.479-25.074H-8.478Z"/>
<path transform="matrix(1,0,0,-1,892.7457,854.9383)" d="M0 0H9.561L21.587-33.492 33.793 0H43.113V-42.932H35.777V-12.146L24.473-42.932H18.4L7.276-12.387V-42.932H0Z"/>
<path transform="matrix(1,0,0,-1,992.6194,868.5278)" d="M0 0C0 2.405-.622 4.188-1.864 5.352-3.107 6.514-5.452 7.095-8.899 7.095H-16.115V-7.336H-8.839C-6.514-7.336-4.711-7.045-3.427-6.464-2.144-5.883-1.253-5.041-.752-3.938-.251-2.836 0-1.524 0 0M-23.931 13.59H-8.839C-4.67 13.59-1.393 13.018 .992 11.875 3.377 10.733 5.071 9.149 6.073 7.126 7.075 5.101 7.577 2.786 7.577 .18 7.577-2.546 7.065-4.961 6.043-7.065 5.021-9.17 3.317-10.823 .932-12.026-1.453-13.228-4.711-13.83-8.839-13.83H-16.115V-29.343H-23.931Z"/>
<path transform="matrix(1,0,0,-1,522.6533,813.0287)" d="M0 0C0 2.204-.641 3.868-1.924 4.991-3.207 6.113-5.332 6.675-8.298 6.675H-17.076V-6.494H-8.598C-5.271-6.494-3.006-5.933-1.804-4.81-.601-3.688 0-2.085 0 0M-3.066 22.759C-4.31 23.621-6.433 24.052-9.44 24.052H-17.076V12.688H-8.779C-6.093 12.688-4.159 13.169-2.976 14.13-1.794 15.093-1.203 16.536-1.203 18.46-1.203 20.464-1.824 21.897-3.066 22.759M-24.653 30.245H-8.598C-4.75 30.245-1.724 29.773 .481 28.832 2.685 27.89 4.249 26.597 5.171 24.954 6.093 23.309 6.554 21.406 6.554 19.241 6.554 17.237 6.103 15.463 5.201 13.92 4.299 12.376 2.806 11.084 .722 10.042 3.368 8.999 5.211 7.577 6.254 5.773 7.295 3.969 7.817 1.985 7.817-.18 7.817-2.626 7.276-4.79 6.194-6.674 5.111-8.559 3.417-10.032 1.113-11.093-1.193-12.156-4.23-12.687-7.997-12.687H-24.653Z" fill="#0e1011"/>
<path transform="matrix(1,0,0,-1,579.956,790.2395)" d="M0 0-6.374-18.46H6.433ZM-12.146-35.476H-20.264L-4.39 7.456H4.81L20.564-35.476H12.206L8.478-25.074H-8.479Z" fill="#0e1011"/>
<path transform="matrix(1,0,0,-1,660.7391,804.0692)" d="M0 0C0 4.649-.982 8.227-2.946 10.733-4.911 13.238-8.038 14.491-12.326 14.491H-20.383V-14.792H-13.108C-8.578-14.792-5.261-13.509-3.157-10.944-1.052-8.379 0-4.73 0 0M-28.321 21.286H-12.507C-5.933 21.286-.832 19.521 2.796 15.994 6.424 12.466 8.238 7.175 8.238 .12 8.238-7.015 6.323-12.427 2.496-16.115-1.333-19.803-6.654-21.647-13.469-21.647H-28.321Z" fill="#0e1011"/>
<path transform="matrix(1,0,0,-1,700.4534,782.7833)" d="M0 0H8.058V-35.897H31.448V-42.932H0Z" fill="#0e1011"/>
<path transform="matrix(1,0,0,-1,777.538,790.2395)" d="M0 0-6.373-18.46H6.434ZM-12.146-35.476H-20.263L-4.389 7.456H4.81L20.564-35.476H12.207L8.479-25.074H-8.478Z" fill="#0e1011"/>
<path transform="matrix(1,0,0,-1,825.8824,782.7833)" d="M0 0H7.396L26.758-30.365V0H34.334V-42.932H27.119L7.637-12.747V-42.932H0Z" fill="#0e1011"/>
<path transform="matrix(1,0,0,-1,924.3441,804.0692)" d="M0 0C0 4.649-.983 8.227-2.947 10.733-4.911 13.238-8.038 14.491-12.326 14.491H-20.384V-14.792H-13.109C-8.579-14.792-5.261-13.509-3.157-10.944-1.052-8.379 0-4.73 0 0M-28.321 21.286H-12.507C-5.933 21.286-.833 19.521 2.796 15.994 6.423 12.466 8.237 7.175 8.237 .12 8.237-7.015 6.323-12.427 2.495-16.115-1.334-19.803-6.655-21.647-13.469-21.647H-28.321Z" fill="#0e1011"/>
<path transform="matrix(1,0,0,-1,993.8223,813.9307)" d="M0 0C0 1.403-.432 2.646-1.293 3.728-2.156 4.81-3.93 5.593-6.614 6.073L-12.146 7.096C-16.596 7.897-19.974 9.23-22.278 11.094-24.584 12.958-25.736 15.834-25.736 19.723-25.736 22.489-25.024 24.793-23.601 26.638-22.179 28.481-20.224 29.874-17.738 30.816-15.253 31.758-12.387 32.23-9.14 32.23-5.412 32.23-2.396 31.698-.09 30.636 2.214 29.574 3.958 28.16 5.141 26.397 6.323 24.632 7.095 22.648 7.456 20.444L-.181 19.362C-.742 21.527-1.664 23.14-2.947 24.202-4.23 25.264-6.314 25.796-9.2 25.796-12.367 25.796-14.592 25.254-15.874 24.172-17.158 23.09-17.799 21.726-17.799 20.083-17.799 18.4-17.318 17.116-16.355 16.235-15.393 15.353-13.649 14.692-11.124 14.251L-5.171 13.109C-.521 12.226 2.866 10.783 4.991 8.779 7.115 6.774 8.177 3.908 8.177 .181 8.177-3.628 6.765-6.755 3.938-9.2 1.112-11.645-3.067-12.867-8.599-12.867-13.931-12.867-18.18-11.746-21.346-9.5-24.513-7.255-26.297-3.749-26.698 1.022H-18.701C-18.3-1.543-17.278-3.417-15.634-4.6-13.991-5.783-11.565-6.373-8.358-6.373-5.231-6.373-3.057-5.763-1.834-4.54-.612-3.317 0-1.804 0 0" fill="#0e1011"/>
<path transform="matrix(1,0,0,-1,522.6533,885.1838)" d="M0 0C0 2.204-.641 3.868-1.924 4.991-3.207 6.113-5.332 6.675-8.298 6.675H-17.076V-6.494H-8.598C-5.271-6.494-3.006-5.933-1.804-4.81-.601-3.688 0-2.085 0 0M-3.066 22.759C-4.31 23.621-6.433 24.052-9.44 24.052H-17.076V12.688H-8.779C-6.093 12.688-4.159 13.169-2.976 14.13-1.794 15.093-1.203 16.536-1.203 18.46-1.203 20.464-1.824 21.897-3.066 22.759M-24.653 30.245H-8.598C-4.75 30.245-1.724 29.773 .481 28.832 2.685 27.89 4.249 26.597 5.171 24.954 6.093 23.309 6.554 21.406 6.554 19.241 6.554 17.237 6.103 15.463 5.201 13.92 4.299 12.376 2.806 11.084 .722 10.042 3.368 8.999 5.211 7.577 6.254 5.773 7.295 3.969 7.817 1.985 7.817-.18 7.817-2.626 7.276-4.79 6.194-6.674 5.111-8.559 3.417-10.032 1.113-11.093-1.193-12.156-4.23-12.687-7.997-12.687H-24.653Z" fill="#0e1011"/>
<path transform="matrix(1,0,0,-1,568.1102,876.4045)" d="M0 0C0-4.851 1.002-8.669 3.006-11.455 5.011-14.241 8.017-15.634 12.026-15.634 15.954-15.634 18.931-14.241 20.955-11.455 22.979-8.669 23.992-4.851 23.992 0 23.992 4.81 22.979 8.618 20.955 11.425 18.931 14.23 15.954 15.634 12.026 15.634 8.017 15.634 5.011 14.23 3.006 11.425 1.002 8.618 0 4.81 0 0M-8.298-.12C-8.298 4.69-7.446 8.788-5.742 12.176-4.039 15.563-1.664 18.138 1.383 19.903 4.429 21.666 7.998 22.548 12.086 22.548 16.214 22.548 19.792 21.676 22.819 19.932 25.846 18.189 28.19 15.653 29.854 12.326 31.517 8.999 32.35 4.95 32.35 .18 32.35-4.63 31.517-8.729 29.854-12.116 28.19-15.504 25.835-18.09 22.789-19.873 19.742-21.656 16.134-22.548 11.966-22.548 7.877-22.548 4.309-21.676 1.263-19.933-1.784-18.189-4.139-15.654-5.802-12.326-7.466-9-8.298-4.931-8.298-.12" fill="#0e1011"/>
<path transform="matrix(1,0,0,-1,638.8213,876.4045)" d="M0 0C0-4.851 1.002-8.669 3.006-11.455 5.011-14.241 8.017-15.634 12.026-15.634 15.954-15.634 18.931-14.241 20.955-11.455 22.979-8.669 23.992-4.851 23.992 0 23.992 4.81 22.979 8.618 20.955 11.425 18.931 14.23 15.954 15.634 12.026 15.634 8.017 15.634 5.011 14.23 3.006 11.425 1.002 8.618 0 4.81 0 0M-8.298-.12C-8.298 4.69-7.446 8.788-5.742 12.176-4.039 15.563-1.664 18.138 1.383 19.903 4.429 21.666 7.998 22.548 12.086 22.548 16.214 22.548 19.792 21.676 22.819 19.932 25.846 18.189 28.19 15.653 29.854 12.326 31.517 8.999 32.35 4.95 32.35 .18 32.35-4.63 31.517-8.729 29.854-12.116 28.19-15.504 25.835-18.09 22.789-19.873 19.742-21.656 16.134-22.548 11.966-22.548 7.877-22.548 4.309-21.676 1.263-19.933-1.784-18.189-4.139-15.654-5.802-12.326-7.466-9-8.298-4.931-8.298-.12" fill="#0e1011"/>
<path transform="matrix(1,0,0,-1,710.9159,861.9735)" d="M0 0H-13.529V7.035H21.587V0H7.997V-35.897H0Z" fill="#0e1011"/>
<path transform="matrix(1,0,0,-1,758.718,876.5848)" d="M0 0C0 4.85 .842 8.959 2.526 12.326 4.209 15.693 6.544 18.269 9.53 20.053 12.516 21.836 15.954 22.729 19.843 22.729 23.41 22.729 26.376 22.137 28.742 20.955 31.106 19.772 32.981 18.099 34.364 15.934 35.747 13.769 36.718 11.204 37.28 8.237L29.403 7.155C28.762 9.881 27.729 12.005 26.307 13.529 24.883 15.052 22.688 15.814 19.722 15.814 16.074 15.814 13.278 14.41 11.334 11.605 9.389 8.799 8.418 5.01 8.418 .24 8.418-4.611 9.4-8.439 11.365-11.244 13.328-14.05 16.154-15.453 19.843-15.453 23.09-15.453 25.454-14.622 26.938-12.958 28.42-11.295 29.363-9.12 29.764-6.434H37.941C37.661-9.561 36.789-12.326 35.326-14.732 33.862-17.137 31.839-19.011 29.253-20.354 26.667-21.696 23.49-22.368 19.722-22.368 15.634-22.368 12.116-21.486 9.17-19.723 6.223-17.959 3.958-15.414 2.375-12.086 .791-8.759 0-4.73 0 0" fill="#0e1011"/>
<path transform="matrix(1,0,0,-1,842.8989,862.3946)" d="M0 0-6.373-18.46H6.434ZM-12.146-35.476H-20.263L-4.389 7.456H4.81L20.564-35.476H12.207L8.479-25.074H-8.478Z" fill="#0e1011"/>
<path transform="matrix(1,0,0,-1,892.7457,854.9383)" d="M0 0H9.561L21.587-33.492 33.793 0H43.113V-42.932H35.777V-12.146L24.473-42.932H18.4L7.276-12.387V-42.932H0Z" fill="#0e1011"/>
<path transform="matrix(1,0,0,-1,992.6194,868.5278)" d="M0 0C0 2.405-.622 4.188-1.864 5.352-3.107 6.514-5.452 7.095-8.899 7.095H-16.115V-7.336H-8.839C-6.514-7.336-4.711-7.045-3.427-6.464-2.144-5.883-1.253-5.041-.752-3.938-.251-2.836 0-1.524 0 0M-23.931 13.59H-8.839C-4.67 13.59-1.393 13.018 .992 11.875 3.377 10.733 5.071 9.149 6.073 7.126 7.075 5.101 7.577 2.786 7.577 .18 7.577-2.546 7.065-4.961 6.043-7.065 5.021-9.17 3.317-10.823 .932-12.026-1.453-13.228-4.711-13.83-8.839-13.83H-16.115V-29.343H-23.931Z" fill="#0e1011"/>
</g>
<use data-text="D" xlink:href="#font_2_192" transform="matrix(25.8586,0,0,-26.5677,625.0879,981.1292)" fill="#0e1011"/>
<use data-text="R" xlink:href="#font_2_206" transform="matrix(25.8586,0,0,-26.5677,652.26528,981.1292)" fill="#0e1011"/>
<use data-text="U" xlink:href="#font_2_209" transform="matrix(25.8586,0,0,-26.5677,677.73599,981.1292)" fill="#0e1011"/>
<use data-text="M" xlink:href="#font_2_201" transform="matrix(25.8586,0,0,-26.5677,704.18936,981.1292)" fill="#0e1011"/>
<use data-text="H" xlink:href="#font_2_196" transform="matrix(25.8586,0,0,-26.5677,734.90939,981.1292)" fill="#0e1011"/>
<use data-text="E" xlink:href="#font_2_193" transform="matrix(25.8586,0,0,-26.5677,762.00918,981.1292)" fill="#0e1011"/>
<use data-text="L" xlink:href="#font_2_200" transform="matrix(25.8586,0,0,-26.5677,785.92837,981.1292)" fill="#0e1011"/>
<use data-text="L" xlink:href="#font_2_200" transform="matrix(25.8586,0,0,-26.5677,809.04598,981.1292)" fill="#0e1011"/>
<use data-text="E" xlink:href="#font_2_193" transform="matrix(25.8586,0,0,-26.5677,832.1636,981.1292)" fill="#0e1011"/>
<use data-text="R" xlink:href="#font_2_206" transform="matrix(25.8586,0,0,-26.5677,856.08279,981.1292)" fill="#0e1011"/>
<use data-text="A" xlink:href="#font_3_189" transform="matrix(18.4704,0,0,-18.9769,655.335,1014.02249)" fill="#0e1011"/>
<use data-text="L" xlink:href="#font_3_200" transform="matrix(18.4704,0,0,-18.9769,673.60226,1014.02249)" fill="#0e1011"/>
<use data-text="B" xlink:href="#font_3_190" transform="matrix(18.4704,0,0,-18.9769,689.6345,1014.02249)" fill="#0e1011"/>
<use data-text="E" xlink:href="#font_3_193" transform="matrix(18.4704,0,0,-18.9769,706.9967,1014.02249)" fill="#0e1011"/>
<use data-text="R" xlink:href="#font_3_206" transform="matrix(18.4704,0,0,-18.9769,723.62008,1014.02249)" fill="#0e1011"/>
<use data-text="T" xlink:href="#font_3_208" transform="matrix(18.4704,0,0,-18.9769,740.6682,1014.02249)" fill="#0e1011"/>
<use data-text="A" xlink:href="#font_3_189" transform="matrix(18.4704,0,0,-18.9769,755.8324,1014.02249)" fill="#0e1011"/>
<use data-text="." xlink:href="#font_3_4" transform="matrix(18.4704,0,0,-18.9769,774.3582,1014.02249)" fill="#0e1011"/>
<use data-text=" " xlink:href="#font_3_3" transform="matrix(18.4704,0,0,-18.9769,784.20297,1014.02249)" fill="#0e1011"/>
<use data-text="C" xlink:href="#font_3_191" transform="matrix(18.4704,0,0,-18.9769,793.82608,1014.02249)" fill="#0e1011"/>
<use data-text="A" xlink:href="#font_3_189" transform="matrix(18.4704,0,0,-18.9769,812.2041,1014.02249)" fill="#0e1011"/>
<use data-text="N" xlink:href="#font_3_202" transform="matrix(18.4704,0,0,-18.9769,830.4713,1014.02249)" fill="#0e1011"/>
<g clip-path="url(#clip_5)">
<path transform="matrix(1,0,0,-1,782.4395,470.20777)" d="M0 0 1.197-.029 2.39-.116 3.576-.264 4.758-.469 5.924-.731 7.079-1.05 8.213-1.424 9.331-1.854 10.426-2.339 11.494-2.877 12.536-3.466 13.546-4.106 14.524-4.795 15.468-5.531 16.376-6.314 17.243-7.137 18.069-8.005 18.85-8.909 19.588-9.853 20.276-10.832 20.917-11.842 21.508-12.881 22.046-13.952 22.531-15.044 22.964-16.159 23.341-17.296 23.66-18.449 23.924-19.617 24.13-20.796 24.277-21.983 24.364-23.177 24.396-24.372 24.367-25.57 24.28-26.764 24.135-27.951 23.932-29.13 23.671-30.299 23.354-31.451 22.98-32.588 22.55-33.706 22.067-34.801 21.529-35.871 20.941-36.913 20.303-37.923 19.614-38.904 18.879-39.849 18.098-40.756 17.275-41.624 16.41-42.449-16.41-72.278-17.278-73.109-18.106-73.982-18.889-74.894-19.628-75.844-20.319-76.828-20.959-77.846-21.548-78.893-22.086-79.969-22.571-81.071-22.998-82.195-23.373-83.337-23.689-84.497-23.948-85.671-24.148-86.858-24.29-88.052-24.372-89.25-24.396-90.452-24.359-91.655-24.264-92.855-24.111-94.047-23.9-95.231-23.628-96.402-23.301-97.56-22.916-98.7-22.476-99.818-21.98-100.915-21.434-101.983-20.833-103.025-20.181-104.038-19.482-105.016-18.733-105.958-17.942-106.862-17.106-107.725-16.228-108.548-15.31-109.326-14.355-110.056-13.366-110.739-12.343-111.375-11.291-111.955-10.212-112.488-9.11-112.963-7.981-113.385-6.836-113.749-5.673-114.057 71.608-132.54 72.771-132.849 73.919-133.213 75.047-133.635 76.15-134.112 77.231-134.642 78.283-135.228 79.307-135.861 80.296-136.546 81.25-137.277 82.168-138.055 83.047-138.878 83.885-139.743 84.677-140.65 85.425-141.592 86.124-142.57 86.776-143.583 87.375-144.627 87.923-145.698 88.419-146.795 88.857-147.916 89.242-149.055 89.569-150.216 89.838-151.387 90.049-152.571 90.202-153.766 90.297-154.966 90.331-156.169 90.305-157.371 90.223-158.574 90.078-159.769 89.877-160.953 89.616-162.129 89.297-163.29 88.923-164.434 88.493-165.558 88.008-166.658 87.467-167.734 86.876-168.783 86.233-169.799 85.542-170.785 84.8-171.735 84.014-172.644 83.186-173.517 17.251-239.453 16.384-240.278 15.476-241.059 14.532-241.797 13.554-242.486 12.541-243.126 11.499-243.717 10.431-244.255 9.336-244.74 8.218-245.17 7.081-245.548 5.929-245.867 4.76-246.128 3.579-246.333 2.392-246.479 1.197-246.568 0-246.597H-65.935L-67.138-246.568-68.335-246.479-69.527-246.331-70.711-246.125-71.885-245.861-73.043-245.54-74.182-245.16-75.303-244.727-76.403-244.237-77.474-243.696-78.518-243.1-79.534-242.457-80.515-241.763-81.459-241.019-82.369-240.233-83.236-239.402-84.062-238.529-84.843-237.617-85.581-236.667-86.269-235.681-86.908-234.663-87.496-233.616-88.031-232.54-88.514-231.44-88.941-230.317-89.313-229.172-89.63-228.014-89.885-226.838-90.086-225.654-90.226-224.461-90.307-223.261-90.331-222.059-90.294-220.859-90.199-219.661-90.044-218.469-89.83-217.285-89.558-216.114-89.231-214.959-88.846-213.82-88.406-212.701-87.91-211.607-87.361-210.539-86.763-209.497-86.111-208.487-85.41-207.508-84.663-206.567-83.872-205.665-83.036-204.802-82.158-203.979-81.24-203.204-80.285-202.473-79.296-201.79-78.276-201.157-77.223-200.575-76.144-200.044-75.042-199.57-73.916-199.148-72.771-198.784-71.608-198.475 5.673-179.992 6.833-179.686 7.978-179.32 9.102-178.9 10.204-178.426 11.283-177.896 12.333-177.315 13.353-176.682 14.342-176.002 15.294-175.271 16.212-174.496 17.088-173.678 17.924-172.816 18.718-171.914 19.464-170.975 20.163-169.999 20.814-168.992 21.416-167.953 21.964-166.884 22.46-165.79 22.901-164.674 23.288-163.537 23.615-162.382 23.89-161.214 24.103-160.032 24.259-158.843 24.356-157.646 24.396-156.448 24.375-155.245 24.296-154.048 24.156-152.856 23.961-151.672 23.705-150.498 23.391-149.34 23.025-148.198 22.597-147.075 22.12-145.975 21.587-144.899 21.002-143.852 20.363-142.834 19.68-141.847 18.947-140.898 18.166-139.983 17.344-139.11 16.479-138.276 15.574-137.488 14.632-136.744 13.654-136.048 12.644-135.402 11.602-134.806 10.531-134.26 9.437-133.769 8.318-133.331 7.182-132.952 6.024-132.627 4.855-132.358 3.674-132.147 2.482-131.997 1.284-131.904 .084-131.87-1.116-131.897-2.313-131.981-3.505-132.123-4.687-132.324-5.86-132.585-7.018-132.901-8.157-133.276-9.278-133.703-10.378-134.188-11.452-134.724-12.496-135.315-13.511-135.956-14.495-136.644-15.442-137.38-16.355-138.163-17.225-138.989-18.053-139.856-47.882-172.676-48.708-173.541-49.575-174.364-50.483-175.145-51.427-175.881-52.405-176.566-53.418-177.205-54.46-177.795-55.528-178.331-56.622-178.816-57.738-179.243-58.875-179.618-60.03-179.937-61.196-180.198-62.375-180.401-63.561-180.546-64.756-180.633-65.951-180.662-67.148-180.633-68.34-180.543-69.527-180.396-70.706-180.19-71.875-179.929-73.027-179.61-74.164-179.233-75.279-178.803-76.371-178.318-77.442-177.779-78.481-177.189-79.491-176.548-80.47-175.859-81.414-175.124-82.319-174.343-83.186-173.517-84.012-172.65-84.793-171.745-85.528-170.801-86.217-169.822-86.858-168.812-87.448-167.773-87.986-166.702-88.472-165.61-88.902-164.495-89.279-163.358-89.598-162.206-89.859-161.037-90.065-159.858-90.212-158.671-90.302-157.479-90.331-156.282-90.302-155.087-90.215-153.893-90.07-152.706-89.867-151.527-89.606-150.361-89.287-149.206-88.912-148.069-88.485-146.953-88-145.859-87.464-144.791-86.873-143.749-86.235-142.736-85.549-141.758-84.814-140.814-84.033-139.906-83.21-139.039-82.345-138.213-49.525-108.384-48.655-107.553-47.827-106.68-47.043-105.768-46.305-104.816-45.614-103.832-44.973-102.811-44.382-101.764-43.847-100.686-43.362-99.583-42.934-98.46-42.56-97.315-42.243-96.154-41.985-94.978-41.787-93.791-41.645-92.597-41.563-91.397-41.539-90.194-41.576-88.989-41.671-87.791-41.827-86.596-42.04-85.412-42.312-84.239-42.642-83.083-43.027-81.942-43.467-80.823-43.966-79.726-44.514-78.655-45.115-77.614-45.769-76.603-46.471-75.625-47.22-74.683-48.014-73.779-48.853-72.914-49.731-72.093-50.651-71.315-51.606-70.585-52.598-69.904-53.621-69.271-54.676-68.689-55.757-68.161-56.862-67.684-57.991-67.264-59.138-66.9-60.302-66.594-61.478-66.347-62.667-66.154-63.865-66.022-65.065-65.951-66.267-65.938-67.47-65.983-68.67-66.088-69.862-66.254-71.044-66.476-72.215-66.758-73.37-67.096-74.507-67.491-75.622-67.942-76.714-68.446-77.782-69.005-78.819-69.614-79.824-70.276-80.797-70.986-81.733-71.74-82.63-72.542-83.487-73.388-84.302-74.275-85.072-75.2-85.795-76.163-86.47-77.157-87.095-78.186-87.667-79.246-88.187-80.33-88.654-81.44-89.065-82.572-89.419-83.722-89.717-84.888-89.957-86.066-90.136-87.256-107.669-225.276-107.849-226.466-108.089-227.645-108.387-228.811-108.74-229.961-109.152-231.092-109.618-232.202-110.138-233.286-110.71-234.346-111.335-235.375-112.01-236.369-112.733-237.332-113.503-238.258-114.318-239.144-115.175-239.991-116.072-240.792-117.008-241.547-117.982-242.256-118.986-242.918-120.023-243.527-121.091-244.086-122.183-244.59-123.299-245.041-124.435-245.437-125.591-245.774-126.762-246.057-127.943-246.278-129.135-246.444-130.335-246.55-131.538-246.595-132.741-246.581-133.941-246.51-135.138-246.378-136.327-246.186-137.504-245.938-138.667-245.632-139.814-245.268-140.943-244.849-142.048-244.371-143.129-243.844-144.184-243.261-145.208-242.628-146.199-241.948-147.154-241.217-148.074-240.439-148.953-239.619-149.791-238.754-150.585-237.849-151.334-236.907-152.036-235.929-152.69-234.919-153.291-233.877-153.84-232.806-154.338-231.709-154.779-230.591-155.164-229.449-155.493-228.294-155.765-227.12-155.979-225.936-156.134-224.741-156.229-223.544-156.266-222.338-156.242-221.136-156.161-219.936-156.018-218.741-155.82-217.554-155.562-216.378-155.245-215.217-154.871-214.073-154.444-212.949-153.958-211.847-153.423-210.768-152.832-209.721-152.191-208.7-151.5-207.717-150.762-206.765-149.979-205.852-149.15-204.979-148.28-204.148-115.46-174.319-114.598-173.494-113.772-172.626-112.994-171.721-112.258-170.777-111.573-169.799-110.934-168.789-110.346-167.749-109.808-166.681-109.326-165.587-108.896-164.471-108.521-163.337-108.202-162.185-107.941-161.019-107.738-159.84-107.59-158.653-107.503-157.461-107.474-156.266-107.503-155.071-107.59-153.879-107.738-152.693-107.941-151.514-108.202-150.348-108.521-149.195-108.896-148.061-109.326-146.946-109.808-145.851-110.346-144.783-110.934-143.744-111.573-142.734-112.258-141.755-112.994-140.811-113.772-139.906-114.598-139.039-115.46-138.213-148.28-108.384-149.145-107.559-149.968-106.691-150.749-105.784-151.485-104.839-152.17-103.861-152.809-102.848-153.399-101.806-153.935-100.738-154.42-99.644-154.847-98.528-155.222-97.391-155.541-96.236-155.802-95.07-156.005-93.892-156.15-92.705-156.237-91.51-156.266-90.315-156.237-89.118-156.147-87.926-156-86.739-155.794-85.56-155.533-84.392-155.214-83.239-154.837-82.102-154.407-80.987-153.922-79.895-153.383-78.824-152.793-77.785-152.152-76.775-151.463-75.796-150.728-74.852-149.947-73.948-149.121-73.08-83.186-7.145-82.319-6.319-81.411-5.539-80.467-4.8-79.489-4.112-78.476-3.471-77.434-2.88-76.366-2.342-75.271-1.857-74.153-1.427-73.016-1.05-71.864-.731-70.696-.469-69.514-.264-68.327-.119-67.132-.029-65.935 0Z" fill="#0e1011"/>
</g>
</g>
</svg>
